<svg xmlns="http://www.w3.org/2000/svg" xmlns:xlink="http://www.w3.org/1999/xlink" width="500" zoomAndPan="magnify" viewBox="0 0 375 374.999991" height="500" preserveAspectRatio="xMidYMid meet" version="1.0"><defs><clipPath id="0f14388814"><path d="M 67.960938 68 L 292.960938 68 L 292.960938 292.960938 L 67.960938 292.960938 Z M 67.960938 68 " clip-rule="nonzero"/></clipPath><clipPath id="ffb58c65dc"><path d="M 48 285 L 78 285 L 78 315 L 48 315 Z M 48 285 " clip-rule="nonzero"/></clipPath><clipPath id="d018806084"><path d="M 46.746094 288.71875 L 76.9375 270.519531 L 101.332031 310.984375 L 71.140625 329.183594 Z M 46.746094 288.71875 " clip-rule="nonzero"/></clipPath><clipPath id="fd27a31fdd"><path d="M 46.746094 288.71875 L 76.9375 270.519531 L 101.332031 310.984375 L 71.140625 329.183594 Z M 46.746094 288.71875 " clip-rule="nonzero"/></clipPath><clipPath id="2f496fd9fe"><path d="M 77 314 L 85 314 L 85 323 L 77 323 Z M 77 314 " clip-rule="nonzero"/></clipPath><clipPath id="b828ca8d34"><path d="M 46.746094 288.71875 L 76.9375 270.519531 L 101.332031 310.984375 L 71.140625 329.183594 Z M 46.746094 288.71875 " clip-rule="nonzero"/></clipPath><clipPath id="dca8cc6428"><path d="M 46.746094 288.71875 L 76.9375 270.519531 L 101.332031 310.984375 L 71.140625 329.183594 Z M 46.746094 288.71875 " clip-rule="nonzero"/></clipPath><clipPath id="0902abf384"><path d="M 81 280 L 82 280 L 82 281 L 81 281 Z M 81 280 " clip-rule="nonzero"/></clipPath><clipPath id="40432cffc1"><path d="M 46.746094 288.71875 L 76.9375 270.519531 L 101.332031 310.984375 L 71.140625 329.183594 Z M 46.746094 288.71875 " clip-rule="nonzero"/></clipPath><clipPath id="acdb9a9f97"><path d="M 46.746094 288.71875 L 76.9375 270.519531 L 101.332031 310.984375 L 71.140625 329.183594 Z M 46.746094 288.71875 " clip-rule="nonzero"/></clipPath><clipPath id="f8e10680b8"><path d="M 69 272 L 88 272 L 88 307 L 69 307 Z M 69 272 " clip-rule="nonzero"/></clipPath><clipPath id="bb4e953b14"><path d="M 46.746094 288.71875 L 76.9375 270.519531 L 101.332031 310.984375 L 71.140625 329.183594 Z M 46.746094 288.71875 " clip-rule="nonzero"/></clipPath><clipPath id="555bf16207"><path d="M 46.746094 288.71875 L 76.9375 270.519531 L 101.332031 310.984375 L 71.140625 329.183594 Z M 46.746094 288.71875 " clip-rule="nonzero"/></clipPath><clipPath id="2059ca9e93"><path d="M 87 309 L 94 309 L 94 317 L 87 317 Z M 87 309 " clip-rule="nonzero"/></clipPath><clipPath id="b318d2f7b3"><path d="M 46.746094 288.71875 L 76.9375 270.519531 L 101.332031 310.984375 L 71.140625 329.183594 Z M 46.746094 288.71875 " clip-rule="nonzero"/></clipPath><clipPath id="26d2e3d134"><path d="M 46.746094 288.71875 L 76.9375 270.519531 L 101.332031 310.984375 L 71.140625 329.183594 Z M 46.746094 288.71875 " clip-rule="nonzero"/></clipPath><clipPath id="42a17e2a68"><path d="M 237.738281 25 L 347.988281 25 L 347.988281 120 L 237.738281 120 Z M 237.738281 25 " clip-rule="nonzero"/></clipPath><clipPath id="2262a59d14"><path d="M 44 30 L 106 30 L 106 86 L 44 86 Z M 44 30 " clip-rule="nonzero"/></clipPath><clipPath id="cce21f10d5"><path d="M 36.757812 47.425781 L 89.078125 24.8125 L 105.742188 63.363281 L 53.421875 85.980469 Z M 36.757812 47.425781 " clip-rule="nonzero"/></clipPath><clipPath id="4e19b7efcf"><path d="M 36.757812 47.425781 L 154.480469 -3.457031 L 195.84375 92.238281 L 78.117188 143.121094 Z M 36.757812 47.425781 " clip-rule="nonzero"/></clipPath></defs><g clip-path="url(#0f14388814)"><path fill="#ec6ed5" d="M 292.78125 188.515625 L 292.78125 107.964844 C 292.78125 105.460938 292.78125 102.953125 292.78125 100.625 C 292.78125 100.449219 292.960938 100.089844 292.960938 99.910156 C 292.960938 99.730469 292.960938 99.375 292.78125 99.195312 C 292.78125 93.289062 292.78125 87.382812 292.78125 81.472656 C 292.78125 74.136719 287.054688 68.226562 279.714844 68.050781 C 279.714844 68.050781 279.535156 68.050781 279.535156 68.050781 L 82.28125 68.050781 C 81.5625 68.050781 80.847656 68.050781 80.3125 68.050781 C 73.507812 68.40625 67.960938 74.136719 67.960938 80.9375 C 67.960938 82.90625 67.960938 84.875 67.960938 86.84375 L 67.960938 276.761719 C 67.960938 281.414062 68.316406 286.066406 72.078125 289.46875 C 75.835938 292.871094 79.773438 292.871094 84.25 292.871094 L 279.714844 292.871094 C 286.695312 292.691406 292.421875 287.140625 292.601562 280.160156 C 292.601562 279.625 292.601562 278.910156 292.601562 278.371094 L 292.601562 189.945312 C 292.601562 189.769531 292.78125 189.410156 292.78125 189.230469 C 292.78125 189.050781 292.960938 188.695312 292.78125 188.515625 Z M 72.433594 102.058594 L 263.425781 102.058594 C 271.660156 102.058594 280.070312 102.417969 288.304688 102.058594 L 288.304688 186.902344 L 97.496094 186.902344 C 89.082031 186.902344 80.847656 186.546875 72.433594 186.902344 L 72.433594 104.921875 C 72.433594 104.027344 72.433594 102.953125 72.433594 102.058594 Z M 72.433594 81.117188 C 72.433594 76.460938 76.195312 72.523438 81.027344 72.523438 L 251.074219 72.523438 C 260.382812 72.523438 269.691406 72.523438 278.996094 72.523438 C 283.832031 72.167969 287.949219 75.925781 288.304688 80.757812 C 288.304688 80.9375 288.304688 81.296875 288.304688 81.472656 C 288.304688 84.339844 288.304688 87.203125 288.304688 90.066406 L 288.304688 97.40625 L 97.496094 97.40625 C 89.082031 97.40625 80.847656 97.046875 72.433594 97.40625 C 72.433594 92.035156 72.433594 86.664062 72.433594 81.117188 Z M 288.304688 279.984375 C 288.304688 284.636719 284.546875 288.574219 279.894531 288.574219 L 85.5 288.574219 C 82.816406 288.574219 79.59375 288.933594 77.089844 287.679688 C 72.613281 285.351562 72.613281 281.054688 72.613281 276.761719 L 72.613281 191.558594 L 263.605469 191.558594 C 271.839844 191.558594 280.25 191.914062 288.484375 191.558594 L 288.484375 277.835938 C 288.304688 278.550781 288.304688 279.265625 288.304688 279.984375 Z M 288.304688 279.984375 " fill-opacity="1" fill-rule="nonzero"/></g><path fill="#ec6ed5" d="M 140.992188 244.363281 L 140.992188 218.585938 C 140.992188 216.082031 140.992188 213.574219 140.992188 211.246094 C 141.167969 206.953125 137.769531 203.371094 133.472656 203.191406 C 127.207031 203.011719 120.941406 203.191406 114.679688 203.191406 C 107.875 203.191406 100.894531 203.011719 94.09375 203.191406 C 89.796875 203.011719 86.21875 206.414062 86.039062 210.710938 C 86.039062 210.710938 86.039062 210.710938 86.039062 210.890625 C 86.039062 212.859375 86.039062 214.828125 86.039062 216.796875 L 86.039062 251.523438 C 86.039062 255.101562 87.113281 258.324219 90.511719 259.933594 C 92.660156 260.652344 94.988281 260.828125 97.316406 260.652344 L 133.292969 260.652344 C 133.472656 260.652344 133.652344 260.652344 133.832031 260.472656 C 137.949219 260.113281 141.167969 256.710938 140.992188 252.417969 C 140.992188 252.417969 140.992188 252.238281 140.992188 252.238281 C 140.992188 249.730469 140.992188 247.046875 140.992188 244.363281 Z M 136.515625 252.773438 C 136.515625 254.566406 135.082031 255.996094 133.292969 255.996094 L 95.703125 255.996094 C 93.378906 255.996094 90.691406 255.996094 90.335938 252.773438 C 90.15625 251.34375 90.335938 249.730469 90.335938 248.300781 L 90.335938 214.828125 C 90.15625 213.214844 90.15625 211.425781 90.511719 209.816406 C 91.410156 207.308594 94.09375 207.847656 96.242188 207.847656 L 129.355469 207.847656 C 131.144531 207.667969 132.9375 207.667969 134.726562 208.203125 C 136.875 209.277344 136.515625 211.785156 136.515625 213.753906 L 136.515625 235.949219 C 136.515625 241.320312 136.695312 247.046875 136.515625 252.773438 Z M 136.515625 252.773438 " fill-opacity="1" fill-rule="nonzero"/><path fill="#ec6ed5" d="M 129.535156 264.945312 L 97.496094 264.945312 C 96.242188 264.945312 95.347656 266.019531 95.347656 267.09375 C 95.347656 268.167969 96.421875 269.242188 97.496094 269.242188 L 129.535156 269.242188 C 130.789062 269.242188 131.683594 268.167969 131.683594 267.09375 C 131.683594 266.019531 130.789062 264.945312 129.535156 264.945312 Z M 129.535156 264.945312 " fill-opacity="1" fill-rule="nonzero"/><path fill="#ec6ed5" d="M 129.535156 272.285156 L 97.496094 272.285156 C 96.242188 272.285156 95.347656 273.359375 95.347656 274.433594 C 95.347656 275.6875 96.421875 276.582031 97.496094 276.582031 L 129.535156 276.582031 C 130.789062 276.582031 131.683594 275.507812 131.683594 274.433594 C 131.683594 273.359375 130.789062 272.285156 129.535156 272.285156 Z M 129.535156 272.285156 " fill-opacity="1" fill-rule="nonzero"/><path fill="#ec6ed5" d="M 207.9375 244.363281 L 207.9375 218.585938 C 207.9375 216.082031 207.9375 213.574219 207.9375 211.246094 C 208.113281 206.953125 204.714844 203.371094 200.417969 203.191406 C 194.152344 203.011719 187.886719 203.191406 181.625 203.191406 C 174.820312 203.191406 167.839844 203.011719 161.039062 203.191406 C 156.742188 203.011719 153.164062 206.59375 153.164062 210.890625 C 153.164062 212.859375 153.164062 214.828125 153.164062 216.796875 L 153.164062 251.523438 C 153.164062 255.101562 154.238281 258.324219 157.636719 259.933594 C 159.785156 260.652344 162.113281 260.828125 164.441406 260.652344 L 200.417969 260.652344 C 200.597656 260.652344 200.777344 260.652344 200.953125 260.472656 C 205.070312 260.113281 208.113281 256.535156 207.9375 252.417969 C 207.9375 252.417969 207.9375 252.417969 207.9375 252.238281 C 207.9375 249.730469 207.9375 247.046875 207.9375 244.363281 Z M 203.460938 252.773438 C 203.460938 254.566406 202.027344 255.996094 200.238281 255.996094 L 162.648438 255.996094 C 160.324219 255.996094 157.636719 255.996094 157.28125 252.773438 C 157.101562 251.34375 157.28125 249.730469 157.28125 248.300781 L 157.28125 214.828125 C 157.101562 213.214844 157.101562 211.425781 157.457031 209.816406 C 158.355469 207.308594 161.039062 207.847656 163.1875 207.847656 L 196.300781 207.847656 C 198.089844 207.667969 199.882812 207.667969 201.671875 208.203125 C 203.820312 209.277344 203.460938 211.785156 203.460938 213.753906 L 203.460938 235.949219 C 203.460938 241.320312 203.820312 247.046875 203.460938 252.773438 Z M 203.460938 252.773438 " fill-opacity="1" fill-rule="nonzero"/><path fill="#ec6ed5" d="M 196.480469 264.945312 L 164.441406 264.945312 C 163.1875 264.945312 162.292969 266.019531 162.292969 267.09375 C 162.292969 268.167969 163.367188 269.242188 164.441406 269.242188 L 196.480469 269.242188 C 197.734375 269.242188 198.628906 268.167969 198.628906 267.09375 C 198.628906 266.019531 197.734375 264.945312 196.480469 264.945312 Z M 196.480469 264.945312 " fill-opacity="1" fill-rule="nonzero"/><path fill="#ec6ed5" d="M 196.480469 272.285156 L 164.441406 272.285156 C 163.1875 272.285156 162.292969 273.359375 162.292969 274.433594 C 162.292969 275.6875 163.367188 276.582031 164.441406 276.582031 L 196.480469 276.582031 C 197.734375 276.582031 198.628906 275.507812 198.628906 274.433594 C 198.628906 273.359375 197.734375 272.285156 196.480469 272.285156 Z M 196.480469 272.285156 " fill-opacity="1" fill-rule="nonzero"/><path fill="#ec6ed5" d="M 274.882812 244.363281 L 274.882812 218.585938 C 274.882812 216.082031 274.882812 213.574219 274.882812 211.246094 C 275.058594 206.953125 271.660156 203.371094 267.363281 203.191406 C 261.097656 203.011719 254.832031 203.191406 248.566406 203.191406 C 241.765625 203.191406 234.785156 203.011719 227.984375 203.191406 C 223.6875 203.191406 220.109375 206.59375 220.109375 210.890625 C 220.109375 212.859375 220.109375 214.828125 220.109375 216.796875 L 220.109375 251.523438 C 220.109375 255.101562 221.183594 258.324219 224.582031 259.933594 C 226.730469 260.652344 229.058594 260.828125 231.382812 260.652344 L 267.363281 260.652344 C 267.542969 260.652344 267.722656 260.652344 268.078125 260.472656 C 272.015625 259.933594 275.058594 256.535156 274.882812 252.417969 C 274.882812 252.417969 274.882812 252.417969 274.882812 252.238281 C 274.882812 249.730469 274.882812 247.046875 274.882812 244.363281 Z M 270.40625 252.773438 C 270.40625 254.566406 268.972656 255.996094 267.183594 255.996094 L 229.59375 255.996094 C 227.269531 255.996094 224.582031 255.996094 224.226562 252.773438 C 224.046875 251.34375 224.226562 249.730469 224.226562 248.300781 L 224.226562 214.828125 C 224.046875 213.214844 224.046875 211.425781 224.402344 209.816406 C 225.296875 207.308594 227.984375 207.847656 230.132812 207.847656 L 263.066406 207.847656 C 264.855469 207.667969 266.648438 207.667969 268.4375 208.203125 C 270.585938 209.277344 270.226562 211.785156 270.226562 213.753906 L 270.226562 235.949219 C 270.40625 241.320312 270.765625 247.046875 270.40625 252.773438 Z M 270.40625 252.773438 " fill-opacity="1" fill-rule="nonzero"/><path fill="#ec6ed5" d="M 263.425781 264.945312 L 231.382812 264.945312 C 230.132812 264.945312 229.238281 266.019531 229.238281 267.09375 C 229.238281 268.167969 230.3125 269.242188 231.382812 269.242188 L 263.425781 269.242188 C 264.679688 269.242188 265.574219 268.167969 265.574219 267.09375 C 265.574219 266.019531 264.679688 264.945312 263.425781 264.945312 Z M 263.425781 264.945312 " fill-opacity="1" fill-rule="nonzero"/><path fill="#ec6ed5" d="M 263.425781 272.285156 L 231.382812 272.285156 C 230.132812 272.285156 229.238281 273.359375 229.238281 274.433594 C 229.238281 275.6875 230.3125 276.582031 231.382812 276.582031 L 263.425781 276.582031 C 264.679688 276.582031 265.574219 275.507812 265.574219 274.433594 C 265.753906 273.359375 264.679688 272.285156 263.425781 272.285156 Z M 263.425781 272.285156 " fill-opacity="1" fill-rule="nonzero"/><path fill="#ec6ed5" d="M 94.273438 85.769531 C 94.273438 85.769531 94.273438 85.589844 94.273438 85.769531 C 94.273438 85.589844 94.273438 85.589844 94.273438 85.589844 C 94.09375 85.589844 94.09375 85.769531 94.273438 85.769531 Z M 94.273438 85.769531 " fill-opacity="1" fill-rule="nonzero"/><path fill="#ec6ed5" d="M 96.957031 90.78125 C 98.03125 89.351562 98.746094 87.738281 98.746094 85.949219 C 98.746094 85.589844 98.746094 85.234375 98.566406 85.054688 C 98.210938 82.367188 96.242188 79.863281 93.554688 78.96875 C 90.691406 77.894531 87.46875 78.789062 85.5 81.117188 C 82.816406 84.339844 83.175781 88.992188 86.398438 91.675781 C 89.441406 94.363281 94.273438 94.003906 96.957031 90.78125 Z M 88.007812 85.769531 C 88.007812 85.589844 88.007812 85.589844 88.007812 85.410156 C 88.007812 85.234375 88.1875 84.875 88.1875 84.695312 L 88.367188 84.339844 L 88.542969 83.980469 C 88.722656 83.800781 88.902344 83.621094 89.082031 83.441406 C 89.082031 83.441406 89.261719 83.441406 89.261719 83.441406 C 89.441406 83.441406 89.976562 83.085938 89.976562 83.085938 C 89.976562 83.085938 89.441406 83.265625 89.796875 83.085938 L 90.15625 82.90625 L 90.335938 82.90625 C 90.335938 82.90625 90.335938 82.90625 90.511719 82.90625 C 90.511719 82.90625 90.691406 82.90625 90.691406 82.90625 L 91.410156 82.90625 L 92.125 83.085938 L 92.484375 83.265625 L 93.199219 83.980469 C 93.199219 84.160156 93.378906 84.160156 93.378906 84.339844 L 93.554688 84.695312 C 93.734375 85.054688 93.734375 85.234375 93.734375 85.410156 C 93.734375 85.410156 93.734375 85.589844 93.734375 85.589844 C 93.734375 85.769531 93.734375 85.769531 93.734375 85.769531 C 93.734375 85.949219 93.734375 85.949219 93.734375 86.128906 C 93.734375 86.308594 93.734375 86.308594 93.734375 86.484375 C 93.734375 86.664062 93.554688 86.84375 93.554688 87.023438 C 93.554688 87.023438 93.554688 87.203125 93.554688 87.203125 C 93.554688 87.203125 93.554688 87.203125 93.378906 87.382812 C 93.199219 87.738281 93.199219 87.917969 93.019531 88.097656 C 93.019531 88.097656 92.839844 88.277344 92.839844 88.277344 L 92.660156 88.453125 C 92.484375 88.453125 92.304688 88.8125 92.125 88.8125 L 91.945312 88.992188 L 91.230469 89.171875 C 91.050781 89.171875 91.050781 89.171875 91.050781 89.171875 C 90.871094 89.171875 90.691406 89.171875 90.335938 89.171875 L 89.976562 89.171875 L 89.617188 88.992188 C 89.261719 88.8125 89.796875 88.992188 89.796875 88.992188 C 89.796875 88.992188 89.261719 88.8125 89.261719 88.632812 L 89.082031 88.453125 C 88.902344 88.277344 88.722656 88.097656 88.542969 87.917969 C 88.542969 87.917969 88.722656 88.277344 88.542969 88.097656 L 88.367188 87.738281 L 88.1875 87.382812 L 88.1875 87.203125 C 88.1875 87.023438 88.1875 87.023438 88.1875 87.203125 C 88.1875 87.023438 88.007812 86.84375 88.007812 86.664062 C 88.007812 86.484375 88.007812 86.484375 88.007812 86.308594 C 88.007812 86.128906 88.007812 85.949219 88.007812 85.769531 Z M 88.007812 85.769531 " fill-opacity="1" fill-rule="nonzero"/><path fill="#ec6ed5" d="M 88.007812 85.769531 C 88.1875 85.234375 88.007812 85.410156 88.007812 85.769531 Z M 88.007812 85.769531 " fill-opacity="1" fill-rule="nonzero"/><path fill="#ec6ed5" d="M 115.035156 90.960938 C 116.289062 89.527344 116.824219 87.917969 116.824219 86.128906 C 116.824219 82.90625 114.855469 80.042969 111.8125 78.96875 C 108.949219 77.894531 105.550781 78.789062 103.582031 81.117188 C 100.894531 84.339844 101.253906 88.992188 104.296875 91.855469 C 107.519531 94.539062 112.351562 94.183594 115.035156 90.960938 Z M 106.085938 85.769531 C 106.085938 85.589844 106.085938 85.589844 106.085938 85.410156 C 106.085938 85.234375 106.265625 84.875 106.265625 84.695312 L 106.445312 84.339844 L 106.625 83.980469 C 106.625 83.980469 106.980469 83.441406 107.160156 83.441406 C 107.160156 83.441406 107.160156 83.441406 107.339844 83.441406 C 107.519531 83.265625 107.875 83.265625 108.054688 83.085938 C 108.054688 83.085938 107.519531 83.265625 107.875 83.085938 L 108.234375 82.90625 L 108.414062 82.90625 C 108.414062 82.90625 108.414062 82.90625 108.59375 82.90625 C 108.59375 82.90625 108.769531 82.90625 108.769531 82.90625 L 109.488281 82.90625 L 110.382812 83.085938 C 110.738281 83.265625 110.738281 83.265625 110.738281 83.265625 L 110.917969 83.441406 C 111.097656 83.621094 111.277344 83.800781 111.457031 83.980469 C 111.457031 84.160156 111.636719 84.160156 111.636719 84.339844 C 111.636719 84.515625 111.8125 84.515625 111.8125 84.695312 C 112.351562 85.234375 112.351562 85.410156 112.351562 85.589844 C 112.351562 85.589844 112.351562 85.769531 112.351562 85.769531 C 112.351562 85.949219 112.351562 85.949219 112.351562 85.949219 C 112.351562 86.128906 112.351562 86.128906 112.351562 86.308594 C 112.351562 86.308594 112.351562 86.484375 112.351562 86.484375 C 112.351562 86.484375 112.171875 87.023438 112.171875 87.203125 C 112.171875 87.203125 112.171875 87.382812 112.171875 87.382812 C 112.171875 87.382812 112.171875 87.382812 111.992188 87.558594 C 111.8125 87.738281 111.636719 88.097656 111.636719 88.277344 C 111.636719 88.277344 111.457031 88.453125 111.457031 88.453125 C 111.457031 88.453125 111.277344 88.632812 111.277344 88.632812 C 111.097656 88.632812 110.917969 88.992188 110.738281 88.992188 L 110.5625 88.8125 L 109.84375 88.992188 C 109.488281 88.992188 109.84375 88.992188 109.84375 88.992188 C 109.84375 88.992188 109.488281 88.992188 109.488281 88.992188 C 109.308594 88.992188 109.128906 88.992188 108.769531 88.992188 C 108.769531 88.992188 108.769531 88.992188 108.59375 88.992188 L 108.234375 88.992188 L 107.875 88.8125 C 107.519531 88.632812 108.054688 88.8125 108.054688 88.8125 C 107.875 88.632812 107.695312 88.632812 107.519531 88.453125 L 107.160156 88.277344 C 106.980469 88.097656 106.800781 87.917969 106.625 87.738281 C 106.625 87.738281 106.625 87.917969 106.625 87.738281 L 106.445312 87.558594 C 106.445312 87.558594 106.265625 87.382812 106.265625 87.382812 L 106.265625 87.203125 C 106.265625 87.023438 106.265625 87.023438 106.265625 87.382812 C 106.265625 87.382812 106.085938 86.84375 106.085938 86.664062 L 106.085938 86.308594 C 106.085938 86.128906 106.085938 85.949219 106.085938 85.769531 Z M 106.085938 85.769531 " fill-opacity="1" fill-rule="nonzero"/><path fill="#ec6ed5" d="M 106.085938 85.769531 C 106.265625 85.234375 106.085938 85.589844 106.085938 85.769531 Z M 106.085938 85.769531 " fill-opacity="1" fill-rule="nonzero"/><path fill="#ec6ed5" d="M 128.996094 93.46875 C 132.578125 92.75 134.90625 89.707031 135.082031 86.128906 C 135.082031 85.949219 135.082031 85.769531 134.90625 85.589844 C 134.726562 82.546875 132.757812 80.042969 129.894531 78.96875 C 125.953125 77.714844 121.660156 79.863281 120.226562 83.800781 C 119.511719 85.949219 119.691406 88.097656 120.941406 90.066406 C 122.734375 92.75 125.953125 94.183594 128.996094 93.46875 Z M 124.34375 85.769531 C 124.34375 85.589844 124.34375 85.589844 124.34375 85.410156 C 124.34375 85.234375 124.523438 84.875 124.523438 84.695312 L 124.703125 84.339844 L 124.882812 83.980469 C 124.882812 83.980469 125.238281 83.441406 125.417969 83.441406 C 125.417969 83.441406 125.597656 83.265625 125.597656 83.265625 C 125.777344 83.085938 126.132812 83.085938 126.3125 82.90625 C 126.3125 82.90625 125.777344 83.085938 126.132812 82.90625 L 126.492188 82.726562 L 126.671875 82.726562 C 126.671875 82.726562 126.671875 82.726562 126.851562 82.726562 C 126.851562 82.726562 127.027344 82.726562 127.027344 82.726562 L 127.746094 82.726562 L 128.640625 82.90625 C 128.996094 83.085938 128.996094 83.085938 128.996094 83.085938 C 128.996094 83.085938 129.175781 83.085938 129.175781 83.265625 L 129.355469 83.265625 L 129.894531 83.800781 C 129.894531 83.980469 130.070312 83.980469 130.070312 84.160156 L 130.25 84.515625 C 130.429688 84.875 130.429688 85.054688 130.429688 85.234375 C 130.609375 85.054688 130.429688 85.769531 130.429688 85.769531 C 130.429688 85.769531 130.429688 85.949219 130.429688 85.949219 C 130.429688 86.128906 130.25 86.308594 130.25 86.484375 C 130.25 86.484375 130.25 86.664062 130.25 86.664062 C 130.25 86.664062 130.25 86.664062 130.070312 86.84375 L 129.714844 87.558594 C 129.714844 87.558594 129.535156 87.738281 129.535156 87.738281 L 129.355469 87.917969 C 129.175781 88.097656 128.996094 88.277344 128.820312 88.277344 L 128.640625 88.453125 L 127.925781 88.632812 C 127.746094 88.632812 127.746094 88.632812 127.566406 88.632812 C 127.386719 88.632812 127.027344 88.632812 126.851562 88.632812 L 126.671875 88.632812 L 126.3125 88.453125 C 125.953125 88.277344 126.492188 88.453125 126.492188 88.453125 C 126.492188 88.453125 125.953125 88.277344 125.953125 88.097656 C 125.777344 88.097656 125.777344 87.917969 125.597656 87.917969 C 125.417969 87.738281 125.238281 87.558594 125.058594 87.382812 C 125.058594 87.382812 125.058594 87.558594 125.058594 87.382812 L 124.882812 87.023438 C 124.882812 87.023438 124.882812 86.84375 124.703125 86.84375 L 124.703125 86.664062 C 124.703125 86.484375 124.703125 86.484375 124.703125 86.664062 C 124.703125 86.484375 124.523438 86.308594 124.523438 86.128906 L 124.523438 85.769531 C 124.34375 86.128906 124.34375 85.949219 124.34375 85.769531 Z M 124.34375 85.769531 " fill-opacity="1" fill-rule="nonzero"/><path fill="#ec6ed5" d="M 130.609375 85.589844 C 130.429688 85.769531 130.609375 85.949219 130.609375 85.589844 Z M 130.609375 85.589844 " fill-opacity="1" fill-rule="nonzero"/><path fill="#ec6ed5" d="M 124.34375 85.769531 C 124.523438 85.234375 124.34375 85.589844 124.34375 85.769531 Z M 124.34375 85.769531 " fill-opacity="1" fill-rule="nonzero"/><path fill="#ec6ed5" d="M 171.957031 93.46875 L 221.359375 93.46875 C 237.292969 93.46875 253.042969 93.824219 268.972656 93.46875 L 269.867188 93.46875 C 273.628906 93.46875 276.851562 90.601562 277.386719 86.84375 C 277.746094 83.441406 275.777344 80.042969 272.554688 78.789062 C 270.765625 78.253906 269.152344 78.074219 267.363281 78.253906 L 185.738281 78.253906 C 180.726562 78.253906 175.714844 78.074219 170.882812 78.253906 C 166.585938 78.253906 163.1875 81.652344 163.1875 85.769531 C 163.1875 87.023438 163.542969 88.277344 164.082031 89.527344 C 165.871094 92.75 168.734375 93.46875 171.957031 93.46875 Z M 172.316406 82.90625 L 258.769531 82.90625 C 262.351562 82.90625 265.929688 82.546875 269.511719 82.90625 C 271.300781 83.085938 272.554688 84.515625 272.375 86.308594 C 272.195312 87.917969 271.121094 88.992188 269.511719 89.171875 L 172.316406 89.171875 C 170.167969 89.171875 167.484375 88.992188 167.484375 86.128906 C 167.484375 83.265625 170.347656 82.90625 172.316406 82.90625 Z M 172.316406 82.90625 " fill-opacity="1" fill-rule="nonzero"/><path fill="#ec6ed5" d="M 115.035156 169.71875 L 144.929688 149.3125 L 174.640625 169.71875 C 176.96875 171.332031 179.296875 167.570312 176.96875 165.78125 L 157.996094 152.894531 L 185.917969 133.921875 L 215.8125 154.324219 C 218.140625 155.9375 220.464844 152.179688 218.140625 150.386719 L 186.992188 129.265625 C 186.277344 128.910156 185.382812 128.910156 184.667969 129.265625 L 154.058594 150.210938 L 146.003906 144.660156 C 145.285156 144.300781 144.390625 144.300781 143.675781 144.660156 L 112.710938 165.960938 C 110.382812 167.570312 112.710938 171.511719 115.035156 169.71875 Z M 115.035156 169.71875 " fill-opacity="1" fill-rule="nonzero"/><path fill="#ec6ed5" d="M 238.722656 133.027344 C 239.976562 131.414062 240.691406 129.445312 240.691406 127.476562 C 240.691406 123.898438 238.367188 120.675781 234.964844 119.421875 C 231.742188 118.167969 227.984375 119.242188 225.65625 121.925781 C 222.613281 125.507812 222.972656 130.878906 226.550781 133.921875 C 230.132812 136.964844 235.679688 136.605469 238.722656 133.027344 Z M 228.339844 126.941406 L 228.339844 126.761719 C 228.339844 126.582031 228.339844 126.582031 228.339844 126.582031 C 228.339844 126.582031 228.339844 126.402344 228.339844 126.402344 C 228.519531 126.222656 228.519531 126.042969 228.699219 125.867188 C 228.699219 125.867188 228.699219 125.867188 228.699219 125.6875 C 228.699219 125.507812 228.878906 125.328125 228.878906 125.328125 C 228.878906 125.328125 229.414062 124.613281 229.058594 124.96875 C 229.238281 124.792969 229.414062 124.613281 229.59375 124.433594 C 229.59375 124.433594 229.773438 124.253906 229.773438 124.253906 C 229.773438 124.074219 230.3125 123.71875 230.667969 123.71875 L 231.207031 123.539062 L 231.5625 123.539062 C 231.5625 123.539062 232.101562 123.359375 231.742188 123.539062 C 231.382812 123.71875 231.921875 123.539062 231.921875 123.539062 L 232.816406 123.539062 L 233.710938 123.898438 C 233.890625 124.074219 234.070312 124.074219 234.25 124.074219 L 234.605469 124.253906 L 234.785156 124.433594 L 235.324219 124.96875 C 235.324219 125.148438 235.5 125.328125 235.679688 125.328125 L 235.859375 125.6875 C 236.039062 126.042969 236.039062 126.402344 236.21875 126.582031 C 236.21875 126.761719 236.21875 127.117188 236.21875 127.296875 C 236.21875 127.476562 236.21875 127.476562 236.21875 127.476562 C 236.21875 127.835938 236.21875 128.011719 236.039062 128.371094 C 236.039062 128.550781 236.039062 128.730469 235.859375 128.910156 C 235.859375 128.910156 236.039062 128.550781 235.859375 128.910156 C 235.679688 129.265625 235.5 129.445312 235.324219 129.804688 L 235.144531 130.160156 C 235.144531 130.160156 234.785156 130.519531 234.785156 130.519531 C 234.605469 130.699219 234.425781 130.699219 234.25 130.878906 L 234.070312 131.054688 C 234.070312 131.054688 234.070312 131.054688 233.890625 131.054688 C 233.355469 131.234375 233.355469 131.234375 232.996094 131.234375 C 232.816406 131.234375 232.636719 131.234375 232.636719 131.234375 L 231.742188 131.234375 L 231.207031 131.054688 L 230.667969 130.878906 C 230.488281 130.878906 230.132812 130.699219 229.953125 130.519531 L 229.59375 130.339844 L 229.058594 129.804688 C 229.058594 129.804688 228.878906 129.804688 228.878906 129.625 L 228.699219 129.445312 C 228.699219 129.445312 228.519531 129.265625 228.519531 129.085938 C 228.339844 128.910156 228.339844 128.550781 228.339844 128.371094 C 228.339844 128.191406 228.339844 128.191406 228.339844 128.011719 C 228.339844 128.011719 228.339844 128.011719 228.339844 127.835938 C 228.339844 127.476562 228.339844 127.296875 228.339844 126.941406 Z M 228.339844 126.941406 " fill-opacity="1" fill-rule="nonzero"/><path fill="#ec6ed5" d="M 229.058594 129.804688 C 229.238281 129.984375 229.238281 129.984375 229.058594 129.804688 Z M 229.058594 129.804688 " fill-opacity="1" fill-rule="nonzero"/><path fill="#ec6ed5" d="M 230.847656 123.71875 C 230.847656 123.71875 230.488281 123.898438 230.847656 123.71875 Z M 230.847656 123.71875 " fill-opacity="1" fill-rule="nonzero"/><g clip-path="url(#ffb58c65dc)"><g clip-path="url(#d018806084)"><g clip-path="url(#fd27a31fdd)"><path fill="#32bcd6" d="M 58.046875 287.726562 C 57.46875 286.992188 56.808594 286.316406 56.300781 285.535156 C 56.265625 285.316406 55.960938 285.246094 55.828125 285.417969 C 55.601562 285.691406 55.351562 285.941406 55.105469 286.195312 C 53.261719 288.074219 51.21875 289.886719 49.570312 291.960938 C 49.503906 292.042969 49.441406 292.128906 49.371094 292.210938 C 49.347656 292.226562 49.335938 292.25 49.328125 292.273438 C 49.144531 292.171875 48.960938 292.070312 48.789062 291.949219 C 48.789062 291.949219 48.785156 291.941406 48.785156 291.949219 C 48.75 291.964844 48.972656 292.25 48.996094 292.273438 C 49.332031 292.699219 49.707031 293.097656 50.125 293.445312 C 50.878906 294.070312 51.613281 294.714844 52.34375 295.363281 C 54.441406 297.265625 56.554688 299.148438 58.675781 301.023438 C 58.679688 301.082031 58.679688 301.136719 58.691406 301.191406 C 58.757812 301.414062 58.980469 301.632812 59.195312 301.488281 C 59.320312 301.597656 59.445312 301.710938 59.570312 301.820312 C 62.113281 304.09375 64.585938 306.449219 67.21875 308.625 C 69.339844 310.429688 71.621094 312.023438 73.878906 313.648438 C 73.953125 313.703125 74.015625 313.710938 74.074219 313.707031 C 74.363281 313.761719 74.824219 313.480469 75.136719 313.285156 C 75.21875 313.238281 75.289062 313.191406 75.34375 313.160156 C 75.179688 313.378906 75.070312 313.53125 74.910156 313.742188 C 74.800781 313.847656 74.695312 314.0625 74.535156 314.074219 C 74.503906 314.042969 74.511719 313.984375 74.492188 313.957031 C 74.371094 314.296875 74.785156 314.167969 74.945312 314.066406 C 74.96875 314.050781 74.992188 314.035156 75.019531 314.019531 C 75.585938 313.679688 76.023438 313.175781 76.457031 312.683594 C 76.769531 312.820312 76.992188 312.539062 77.152344 312.285156 C 77.175781 312.3125 77.203125 312.339844 77.226562 312.371094 C 77.222656 312.3125 77.207031 312.261719 77.199219 312.207031 C 77.207031 312.191406 77.21875 312.171875 77.230469 312.15625 C 77.328125 311.960938 77.515625 311.75 77.449219 311.515625 C 77.324219 311.234375 77.089844 311.324219 76.894531 311.472656 C 76.824219 311.367188 76.753906 311.265625 76.671875 311.167969 C 76.652344 311.109375 76.621094 311.058594 76.566406 311.015625 C 76.5625 311.015625 76.554688 311.015625 76.550781 311.015625 C 76.359375 310.789062 76.152344 310.574219 75.972656 310.359375 C 75.519531 309.847656 75.082031 309.324219 74.648438 308.800781 C 72.210938 305.917969 69.65625 303.128906 67.410156 300.089844 C 64.253906 295.992188 61.335938 291.714844 58.046875 287.722656 Z M 56.125 286.214844 C 56.015625 286.203125 55.832031 286.289062 55.613281 286.433594 C 55.738281 286.304688 55.863281 286.179688 55.992188 286.050781 C 56.035156 286.105469 56.082031 286.160156 56.125 286.214844 Z M 55.714844 296.226562 C 56.289062 294.898438 56.546875 293.460938 56.917969 292.066406 C 56.835938 293.871094 56.800781 295.675781 56.816406 297.484375 C 56.828125 297.554688 56.828125 297.6875 56.824219 297.84375 C 55.507812 296.839844 54.171875 295.820312 52.878906 294.78125 C 52.691406 294.636719 52.503906 294.488281 52.320312 294.335938 C 52.324219 294.328125 52.328125 294.324219 52.332031 294.316406 C 52.949219 292.820312 53.304688 291.226562 53.808594 289.691406 C 53.589844 291.183594 53.351562 292.691406 53.25 294.207031 C 53.222656 294.453125 53.238281 294.734375 53.484375 294.863281 C 54.050781 295.199219 54.457031 293.382812 54.617188 293.007812 C 54.847656 292.289062 55.070312 291.5625 55.273438 290.835938 C 55.152344 292.550781 54.972656 294.273438 54.972656 295.992188 C 54.945312 296.457031 55.480469 296.628906 55.71875 296.226562 Z M 74.164062 312.59375 C 74.101562 312.4375 74.023438 312.292969 73.9375 312.152344 C 73.933594 312.132812 73.929688 312.113281 73.925781 312.097656 C 74.074219 312.1875 74.21875 312.28125 74.367188 312.371094 C 74.289062 312.441406 74.222656 312.515625 74.164062 312.589844 Z M 73.015625 310.847656 C 72.960938 310.816406 72.910156 310.785156 72.851562 310.753906 C 72.847656 310.597656 72.839844 310.441406 72.828125 310.285156 C 72.882812 310.476562 72.945312 310.664062 73.011719 310.847656 Z M 71.515625 309.917969 C 71.414062 309.847656 71.3125 309.777344 71.210938 309.707031 C 71.226562 309.414062 71.191406 309.117188 71.195312 308.832031 C 71.296875 309.191406 71.410156 309.554688 71.519531 309.917969 Z M 70.109375 308.871094 C 69.804688 308.628906 69.503906 308.386719 69.203125 308.140625 C 69.226562 307.921875 69.226562 307.699219 69.226562 307.480469 C 69.210938 306.875 69.183594 306.269531 69.171875 305.667969 C 69.445312 306.746094 69.765625 307.8125 70.109375 308.871094 Z M 68.066406 307.191406 C 67.824219 306.988281 67.578125 306.785156 67.335938 306.582031 C 67.375 305.828125 67.3125 305.074219 67.328125 304.316406 C 67.515625 305.214844 67.753906 306.097656 68.003906 306.980469 C 68.027344 307.050781 68.046875 307.121094 68.066406 307.191406 Z M 64.527344 303.625 C 64.582031 303.847656 64.621094 304.074219 64.671875 304.296875 C 64.378906 304.042969 64.082031 303.785156 63.785156 303.53125 C 63.914062 302.683594 63.945312 301.8125 64.019531 300.957031 C 64.164062 301.851562 64.339844 302.738281 64.527344 303.625 Z M 65.703125 304.6875 C 65.773438 304.03125 65.753906 303.367188 65.765625 302.703125 C 65.960938 303.707031 66.113281 304.722656 66.332031 305.722656 C 66.082031 305.507812 65.828125 305.292969 65.578125 305.078125 C 65.648438 304.957031 65.691406 304.824219 65.703125 304.6875 Z M 62.695312 302.597656 C 62.433594 302.375 62.171875 302.152344 61.910156 301.933594 C 61.925781 301.839844 61.941406 301.753906 61.953125 301.695312 C 62.132812 300.636719 62.28125 299.570312 62.457031 298.507812 C 62.460938 299.828125 62.542969 301.152344 62.679688 302.464844 C 62.6875 302.507812 62.691406 302.550781 62.695312 302.597656 Z M 59.503906 301.050781 C 59.550781 300.953125 59.585938 300.847656 59.617188 300.742188 C 60.03125 301.078125 60.445312 301.414062 60.851562 301.753906 C 60.871094 301.949219 60.898438 302.140625 60.925781 302.332031 C 60.453125 301.902344 59.980469 301.476562 59.503906 301.050781 Z M 61.785156 302.535156 C 62 302.714844 62.21875 302.894531 62.433594 303.078125 C 62.546875 303.171875 62.660156 303.269531 62.773438 303.367188 C 62.804688 303.648438 62.867188 303.921875 62.976562 304.179688 C 62.511719 303.761719 62.050781 303.34375 61.585938 302.925781 C 61.671875 302.839844 61.738281 302.699219 61.785156 302.535156 Z M 59.761719 300.148438 C 59.792969 300 59.828125 299.847656 59.871094 299.703125 C 60.097656 298.703125 60.304688 297.699219 60.515625 296.691406 C 60.511719 298.117188 60.625 299.554688 60.773438 300.976562 C 60.441406 300.695312 60.101562 300.421875 59.761719 300.148438 Z M 53.0625 289.453125 C 53.191406 289.324219 53.320312 289.199219 53.449219 289.074219 C 53.152344 290.015625 52.855469 290.960938 52.578125 291.910156 C 52.691406 291.320312 52.875 290.746094 52.964844 290.148438 C 52.996094 289.917969 53.027344 289.683594 53.0625 289.453125 Z M 52.601562 289.914062 C 52.113281 291.046875 51.964844 292.324219 51.703125 293.523438 C 51.691406 293.613281 51.675781 293.707031 51.660156 293.800781 C 51.332031 293.539062 51 293.289062 50.644531 293.074219 C 50.492188 292.980469 50.332031 292.894531 50.171875 292.8125 C 50.167969 292.808594 50.160156 292.804688 50.152344 292.800781 C 50.117188 292.777344 50.082031 292.746094 50.046875 292.71875 C 49.949219 292.648438 49.84375 292.59375 49.742188 292.527344 C 50.78125 291.753906 51.691406 290.828125 52.601562 289.910156 Z M 56.832031 298.53125 C 56.835938 298.578125 56.835938 298.625 56.839844 298.667969 C 56.480469 298.347656 56.121094 298.03125 55.761719 297.710938 C 56.121094 297.980469 56.476562 298.257812 56.832031 298.53125 Z M 53.832031 293.636719 C 54 292.054688 54.226562 290.480469 54.476562 288.890625 C 54.523438 288.585938 54.566406 288.285156 54.605469 287.980469 C 54.933594 287.679688 55.269531 287.382812 55.601562 287.085938 C 55.648438 287.042969 55.6875 286.996094 55.730469 286.953125 C 55.191406 289.203125 54.589844 291.449219 53.832031 293.640625 Z M 49.789062 292.21875 C 49.738281 292.300781 49.6875 292.382812 49.644531 292.46875 C 49.59375 292.441406 49.546875 292.40625 49.496094 292.378906 C 49.578125 292.351562 49.679688 292.296875 49.789062 292.21875 Z M 57.519531 299.273438 C 57.542969 299.25 57.566406 299.234375 57.582031 299.207031 C 57.589844 299.183594 57.597656 299.15625 57.605469 299.132812 C 57.945312 299.402344 58.285156 299.671875 58.625 299.941406 C 58.621094 300.050781 58.625 300.15625 58.625 300.261719 C 58.257812 299.929688 57.886719 299.601562 57.519531 299.273438 Z M 57.785156 298.582031 C 57.941406 297.996094 58.03125 297.386719 58.171875 296.800781 C 58.382812 295.8125 58.59375 294.820312 58.832031 293.835938 C 58.71875 295.375 58.675781 296.921875 58.652344 298.464844 C 58.65625 298.726562 58.648438 298.988281 58.644531 299.25 C 58.359375 299.023438 58.074219 298.800781 57.785156 298.578125 Z M 65.792969 306.707031 C 64.964844 305.964844 64.136719 305.222656 63.3125 304.480469 C 63.460938 304.457031 63.617188 304.320312 63.667969 304.160156 C 63.671875 304.152344 63.671875 304.144531 63.671875 304.136719 C 64.632812 304.960938 65.59375 305.785156 66.550781 306.609375 C 66.589844 306.75 66.621094 306.886719 66.660156 307.023438 C 66.824219 307.300781 67.042969 307.308594 67.183594 307.15625 C 67.5 307.425781 67.8125 307.699219 68.128906 307.96875 C 68.210938 308.039062 68.296875 308.109375 68.382812 308.183594 C 68.429688 308.285156 68.480469 308.386719 68.539062 308.484375 C 68.667969 308.617188 68.796875 308.652344 68.90625 308.621094 C 69.398438 309.027344 69.902344 309.425781 70.417969 309.808594 C 70.464844 309.9375 70.527344 310.058594 70.617188 310.164062 C 70.71875 310.265625 70.871094 310.273438 70.992188 310.21875 C 71.242188 310.394531 71.5 310.566406 71.757812 310.734375 C 71.867188 311.070312 71.960938 311.433594 72.21875 311.6875 C 72.351562 311.808594 72.5625 311.789062 72.6875 311.667969 C 72.71875 311.644531 72.730469 311.609375 72.75 311.578125 C 73.117188 311.925781 73.460938 312.304688 73.65625 312.785156 C 73.664062 312.800781 73.667969 312.816406 73.675781 312.835938 C 70.945312 310.925781 68.292969 308.910156 65.792969 306.707031 Z M 74.824219 312.855469 C 74.871094 312.800781 74.914062 312.746094 74.964844 312.691406 C 74.984375 312.703125 75.003906 312.714844 75.023438 312.722656 C 74.957031 312.769531 74.890625 312.8125 74.824219 312.851562 Z M 75.277344 312.367188 C 75.394531 312.25 75.507812 312.128906 75.621094 312.007812 C 75.542969 312.152344 75.460938 312.296875 75.359375 312.425781 C 75.332031 312.40625 75.304688 312.386719 75.277344 312.367188 Z M 76.183594 312.1875 C 76.167969 312.203125 76.152344 312.222656 76.132812 312.238281 C 76.113281 312.261719 76.09375 312.285156 76.074219 312.308594 C 76.109375 312.246094 76.144531 312.183594 76.175781 312.117188 C 76.179688 312.140625 76.179688 312.164062 76.183594 312.1875 Z M 75.738281 310.910156 C 75.566406 311.070312 75.445312 311.292969 75.332031 311.492188 C 75.199219 311.484375 75.097656 311.585938 75.027344 311.6875 C 74.9375 311.789062 74.839844 311.882812 74.746094 311.980469 C 74.585938 311.867188 74.417969 311.761719 74.25 311.660156 C 74.082031 311.515625 73.902344 311.382812 73.710938 311.261719 C 73.574219 310.792969 73.410156 310.328125 73.257812 309.863281 C 73.132812 309.464844 73.011719 309.066406 72.878906 308.667969 C 72.789062 308.453125 72.757812 308.171875 72.550781 308.039062 C 72.394531 307.933594 72.167969 308.027344 72.136719 308.214844 C 72.09375 308.464844 72.160156 308.722656 72.171875 308.972656 C 72.214844 309.453125 72.265625 309.9375 72.292969 310.417969 C 72.269531 310.402344 72.242188 310.390625 72.214844 310.371094 C 71.917969 309.414062 71.652344 308.476562 71.386719 307.492188 C 71.265625 307.113281 71.214844 306.707031 71.03125 306.355469 C 70.910156 306.15625 70.578125 306.226562 70.542969 306.453125 C 70.515625 307.238281 70.636719 308.03125 70.652344 308.820312 C 70.371094 307.957031 70.101562 307.085938 69.867188 306.210938 C 69.636719 305.445312 69.527344 304.609375 69.203125 303.871094 C 69.117188 303.722656 68.953125 303.679688 68.808594 303.765625 C 68.550781 303.914062 68.632812 304.257812 68.613281 304.507812 C 68.613281 305.472656 68.664062 306.4375 68.6875 307.402344 C 68.125 305.578125 67.726562 303.699219 67.4375 301.8125 C 67.375 301.667969 67.21875 301.546875 67.058594 301.605469 C 66.714844 301.726562 66.84375 302.65625 66.800781 302.984375 C 66.785156 303.753906 66.78125 304.511719 66.800781 305.292969 C 66.570312 304.179688 66.359375 303.0625 66.1875 301.9375 C 66.0625 301.28125 66.070312 300.601562 65.894531 299.957031 C 65.847656 299.84375 65.746094 299.765625 65.621094 299.769531 C 65.214844 299.851562 65.328125 300.4375 65.277344 300.746094 C 65.214844 301.890625 65.238281 303.039062 65.199219 304.183594 C 64.863281 302.613281 64.523438 301.042969 64.355469 299.445312 C 64.300781 299 64.285156 298.550781 64.277344 298.105469 C 64.273438 297.984375 64.175781 297.878906 64.0625 297.855469 C 63.640625 297.808594 63.726562 298.355469 63.671875 298.625 C 63.511719 300.117188 63.453125 301.625 63.296875 303.117188 C 63.296875 303.113281 63.292969 303.113281 63.289062 303.109375 C 63.074219 301.332031 62.984375 299.539062 62.992188 297.75 C 63 297.214844 63.015625 296.683594 63.042969 296.148438 C 63.019531 295.871094 63.210938 295.316406 62.882812 295.191406 C 62.34375 295.03125 62.339844 296.371094 62.21875 296.722656 C 61.917969 298.320312 61.695312 299.929688 61.429688 301.53125 C 61.410156 301.511719 61.386719 301.496094 61.367188 301.476562 C 61.210938 300.007812 61.070312 298.535156 61.054688 297.054688 C 61.023438 296.136719 61.125 295.136719 61.058594 294.203125 C 61.007812 293.9375 60.617188 293.914062 60.535156 294.167969 C 60.367188 294.714844 60.273438 295.277344 60.148438 295.832031 C 59.863281 297.144531 59.597656 298.460938 59.289062 299.765625 C 59.253906 299.734375 59.214844 299.703125 59.175781 299.671875 C 59.199219 296.703125 59.320312 293.738281 59.660156 290.785156 C 59.679688 290.472656 59.246094 290.40625 59.105469 290.65625 C 58.386719 293.0625 57.898438 295.546875 57.363281 298.003906 C 57.339844 295.734375 57.363281 293.464844 57.515625 291.199219 C 57.554688 290.503906 57.628906 289.808594 57.707031 289.117188 C 57.714844 288.863281 57.898438 288.4375 57.542969 288.347656 C 57.132812 288.285156 57.171875 288.957031 57.054688 289.230469 C 56.722656 290.589844 56.394531 291.949219 56.054688 293.304688 C 56.058594 293.292969 56.0625 293.285156 56.0625 293.273438 C 55.886719 293.933594 55.714844 294.597656 55.515625 295.257812 C 55.601562 293.699219 55.703125 292.140625 55.839844 290.585938 C 55.957031 289.359375 56.09375 288.15625 56.289062 286.933594 C 56.324219 286.738281 56.179688 286.625 56.03125 286.621094 C 56.085938 286.554688 56.136719 286.492188 56.195312 286.425781 C 56.21875 286.40625 56.230469 286.375 56.234375 286.34375 C 60.785156 291.789062 64.746094 297.691406 69.179688 303.226562 C 70.71875 305.148438 72.402344 306.949219 73.980469 308.835938 C 74.566406 309.527344 75.132812 310.234375 75.738281 310.90625 Z M 75.738281 310.910156 " fill-opacity="1" fill-rule="nonzero"/></g></g></g><g clip-path="url(#2f496fd9fe)"><g clip-path="url(#b828ca8d34)"><g clip-path="url(#dca8cc6428)"><path fill="#32bcd6" d="M 78.976562 315.355469 C 78.425781 315.652344 78.105469 316.320312 78.015625 316.929688 C 77.898438 317.808594 78.117188 318.71875 78.511719 319.507812 C 78.648438 320.148438 78.902344 320.769531 79.347656 321.257812 C 79.789062 321.761719 80.4375 322.101562 81.117188 322.039062 C 81.375 322.128906 81.648438 322.175781 81.921875 322.152344 C 82.257812 322.117188 82.550781 322.015625 82.808594 321.859375 C 83.84375 321.234375 84.289062 319.777344 84.433594 318.617188 C 84.550781 317.671875 84.546875 316.617188 83.953125 315.820312 C 83.160156 314.667969 81.445312 314.289062 80.195312 314.882812 C 79.300781 315.292969 78.75 316.195312 78.53125 317.128906 C 78.566406 316.527344 78.636719 315.875 78.980469 315.355469 Z M 81.90625 320.039062 C 81.757812 320.109375 81.636719 319.925781 81.5625 319.820312 C 81.570312 319.804688 81.582031 319.785156 81.59375 319.765625 C 81.652344 319.667969 81.703125 319.566406 81.75 319.460938 C 81.765625 319.488281 81.78125 319.519531 81.800781 319.542969 C 81.871094 319.648438 81.964844 319.746094 82.082031 319.796875 C 82.039062 319.886719 81.988281 319.980469 81.90625 320.039062 Z M 80.921875 319.78125 C 80.875 319.828125 80.828125 319.875 80.773438 319.910156 C 80.09375 320.253906 79.992188 318.6875 80 318.28125 C 80.007812 317.667969 80.105469 317.039062 80.40625 316.492188 C 80.101562 317.59375 80.507812 318.761719 80.921875 319.78125 Z M 82.242188 319.234375 C 82.074219 318.871094 82.109375 318.445312 82.09375 318.054688 C 82.101562 317.730469 82.117188 317.398438 82.222656 317.089844 C 82.375 317.789062 82.347656 318.523438 82.246094 319.234375 Z M 83.183594 315.78125 C 84.085938 316.527344 83.753906 318.058594 83.464844 319.039062 C 83.722656 318.003906 83.863281 316.773438 83.230469 315.84375 C 83.214844 315.824219 83.199219 315.800781 83.183594 315.78125 Z M 83.132812 317.628906 C 83.113281 317.449219 83.058594 317.269531 82.945312 317.128906 C 82.894531 317.070312 82.832031 317.019531 82.757812 317 C 82.691406 316.648438 82.347656 316.289062 82.007812 316.496094 C 81.984375 316.511719 81.957031 316.527344 81.933594 316.546875 C 81.789062 316.125 81.347656 315.699219 80.875 315.90625 C 82.167969 314.898438 83.277344 316.292969 83.132812 317.628906 Z M 81.078125 316.417969 C 81.171875 316.363281 81.285156 316.425781 81.417969 316.710938 C 81.691406 317.515625 81.570312 318.433594 81.269531 319.214844 C 81.035156 318.570312 80.84375 317.898438 80.835938 317.207031 C 80.824219 316.949219 80.921875 316.511719 81.078125 316.417969 Z M 80.097656 315.972656 C 79.488281 316.867188 79.367188 318.03125 79.515625 319.082031 C 79.597656 319.957031 80.292969 321.019531 81.207031 320.253906 C 81.402344 320.5 81.730469 320.683594 82.042969 320.566406 C 81.980469 320.628906 81.910156 320.691406 81.835938 320.746094 C 81.765625 320.800781 81.691406 320.851562 81.613281 320.898438 C 80.574219 321.488281 80.132812 320.820312 79.488281 320.066406 C 78.605469 318.921875 78.9375 316.847656 80.09375 315.976562 Z M 80.097656 315.972656 " fill-opacity="1" fill-rule="nonzero"/></g></g></g><g clip-path="url(#0902abf384)"><g clip-path="url(#40432cffc1)"><g clip-path="url(#acdb9a9f97)"><path fill="#32bcd6" d="M 81.363281 280.480469 C 81.363281 280.480469 81.359375 280.472656 81.359375 280.46875 C 81.363281 280.480469 81.367188 280.488281 81.371094 280.5 C 81.367188 280.496094 81.363281 280.488281 81.363281 280.480469 Z M 81.363281 280.480469 " fill-opacity="1" fill-rule="nonzero"/></g></g></g><g clip-path="url(#f8e10680b8)"><g clip-path="url(#bb4e953b14)"><g clip-path="url(#555bf16207)"><path fill="#32bcd6" d="M 84.675781 306.042969 C 84.804688 305.984375 84.925781 305.914062 85.046875 305.84375 C 85.582031 305.519531 86.0625 305.101562 86.554688 304.71875 C 86.960938 304.390625 87.402344 304.074219 87.664062 303.613281 C 87.878906 303.296875 87.722656 302.917969 87.640625 302.585938 C 87.519531 302.167969 87.425781 301.742188 87.292969 301.332031 C 87.121094 300.585938 86.875 299.859375 86.65625 299.128906 C 86.628906 298.976562 86.601562 298.828125 86.582031 298.675781 C 86.128906 295.6875 85.246094 292.796875 84.390625 289.90625 C 83.78125 287.78125 83.222656 285.644531 82.480469 283.5625 C 82.484375 283.566406 82.488281 283.574219 82.488281 283.585938 C 82.121094 282.539062 81.734375 281.507812 81.355469 280.464844 L 81.359375 280.46875 C 81.234375 280.128906 81.113281 279.792969 80.988281 279.453125 C 80.988281 279.457031 80.992188 279.457031 80.992188 279.457031 C 80.988281 279.453125 80.988281 279.449219 80.988281 279.445312 C 80.226562 277.269531 79.402344 275.085938 78.554688 272.933594 C 78.457031 272.664062 78.304688 272.273438 77.953125 272.355469 C 77.417969 272.597656 76.878906 272.863281 76.316406 273.046875 C 74.578125 273.617188 72.800781 274.074219 71.046875 274.605469 C 70.625 274.726562 70.210938 274.894531 69.773438 274.96875 C 69.671875 274.972656 69.574219 274.960938 69.492188 275.03125 C 69.265625 275.21875 69.476562 275.460938 69.578125 275.65625 C 69.695312 275.890625 69.808594 276.144531 69.921875 276.398438 C 69.253906 276.710938 69.636719 277.449219 69.941406 277.953125 C 73.503906 284.070312 75.925781 290.75 78.933594 297.140625 C 79.804688 299.089844 80.824219 300.960938 81.910156 302.796875 C 82.238281 303.375 82.566406 303.949219 82.902344 304.523438 C 83.070312 304.816406 83.242188 305.105469 83.417969 305.394531 C 83.496094 305.539062 83.601562 305.714844 83.757812 305.757812 C 83.757812 305.773438 83.75 305.789062 83.753906 305.808594 C 83.734375 306.382812 84.34375 306.21875 84.675781 306.042969 Z M 84.03125 305.871094 C 84 305.828125 83.980469 305.773438 83.960938 305.714844 C 84.179688 305.554688 84.402344 305.386719 84.625 305.226562 C 84.667969 305.289062 84.710938 305.351562 84.757812 305.410156 C 84.519531 305.578125 84.28125 305.734375 84.027344 305.871094 Z M 87.152344 303.417969 C 86.859375 303.835938 86.421875 304.125 86.03125 304.445312 C 85.636719 304.742188 85.246094 305.058594 84.84375 305.347656 C 84.828125 305.265625 84.8125 305.183594 84.792969 305.097656 C 85.175781 304.816406 85.5625 304.53125 85.945312 304.246094 C 86.390625 303.953125 86.730469 303.554688 87.097656 303.171875 C 87.105469 303.195312 87.097656 303.21875 87.085938 303.242188 C 87.082031 303.246094 87.070312 303.25 87.074219 303.253906 C 87.128906 303.253906 87.175781 303.195312 87.175781 303.140625 C 87.113281 302.902344 86.667969 303.191406 86.523438 303.242188 C 85.847656 303.605469 85.242188 304.085938 84.628906 304.550781 C 84.441406 304.003906 84.1875 303.476562 83.917969 302.976562 C 83.785156 302.722656 83.648438 302.457031 83.515625 302.199219 C 83.683594 301.921875 83.8125 301.609375 83.972656 301.332031 C 84.464844 300.394531 84.921875 299.4375 85.414062 298.5 C 85.144531 299.921875 84.902344 301.363281 84.777344 302.804688 C 84.796875 303.136719 84.488281 304.085938 84.992188 304.101562 C 85.039062 304.097656 85.082031 304.085938 85.117188 304.0625 C 85.351562 303.921875 85.34375 303.417969 85.433594 303.183594 C 85.503906 302.894531 85.570312 302.605469 85.640625 302.320312 C 85.777344 301.753906 85.917969 301.183594 85.972656 300.601562 C 86.019531 300.300781 86.019531 299.988281 86.078125 299.6875 C 86.152344 299.886719 86.226562 300.085938 86.304688 300.28125 C 86.410156 300.90625 86.484375 301.546875 86.714844 302.140625 C 86.777344 302.300781 86.835938 302.480469 86.914062 302.628906 C 86.945312 302.492188 86.964844 302.355469 86.984375 302.21875 C 87.066406 302.503906 87.148438 302.789062 87.207031 303.074219 C 87.25 303.199219 87.234375 303.3125 87.152344 303.417969 Z M 77.292969 289.964844 C 77.410156 290.042969 77.589844 290.027344 77.671875 289.902344 C 78.003906 289.402344 78.171875 288.8125 78.410156 288.265625 C 79.035156 286.707031 79.632812 285.132812 80.324219 283.597656 C 79.988281 285.53125 79.683594 287.453125 79.332031 289.386719 C 79.15625 290.289062 78.988281 291.164062 78.839844 292.074219 C 78.796875 292.324219 78.769531 292.578125 78.738281 292.828125 C 78.625 292.605469 78.511719 292.382812 78.398438 292.160156 C 78.402344 292.164062 78.40625 292.167969 78.40625 292.171875 C 78.410156 292.175781 78.414062 292.183594 78.417969 292.1875 C 78.046875 291.445312 77.671875 290.703125 77.292969 289.960938 Z M 70.644531 276.695312 C 70.894531 276.605469 71.144531 276.519531 71.394531 276.421875 C 71.617188 276.335938 71.835938 276.242188 72.058594 276.15625 C 71.746094 276.535156 71.398438 276.882812 71.167969 277.320312 C 71.125 277.382812 71.074219 277.460938 71.03125 277.542969 C 70.898438 277.261719 70.773438 276.976562 70.644531 276.695312 Z M 71.273438 278.050781 C 71.335938 278.035156 71.394531 278.003906 71.433594 277.945312 C 71.59375 277.714844 71.753906 277.480469 71.921875 277.25 C 72.296875 276.753906 72.664062 276.25 73.046875 275.761719 C 73.265625 275.675781 73.480469 275.589844 73.699219 275.5 C 73.398438 276.246094 73.089844 276.984375 72.753906 277.714844 C 72.609375 278.023438 72.46875 278.324219 72.324219 278.636719 C 72.257812 278.769531 72.175781 278.917969 72.183594 279.074219 C 72.183594 279.183594 72.257812 279.285156 72.355469 279.320312 C 72.707031 279.472656 73.121094 278.566406 73.339844 278.332031 C 74.101562 277.28125 74.804688 276.1875 75.628906 275.1875 C 75.136719 276.535156 74.59375 277.859375 74.054688 279.1875 C 73.910156 279.570312 73.726562 279.941406 73.621094 280.339844 C 73.558594 280.5625 73.828125 280.761719 74.023438 280.632812 C 74.078125 280.597656 74.125 280.558594 74.167969 280.511719 C 75.082031 279.113281 75.792969 277.566406 76.847656 276.261719 C 76.09375 278.839844 74.921875 281.28125 74.152344 283.851562 C 73.167969 281.929688 72.199219 280 71.277344 278.050781 Z M 74.074219 274.558594 C 74.042969 274.640625 74.007812 274.71875 73.980469 274.796875 C 73.917969 274.824219 73.859375 274.84375 73.796875 274.871094 C 73.890625 274.765625 73.976562 274.660156 74.074219 274.558594 Z M 81.546875 290.507812 C 81.824219 289.679688 82.121094 288.859375 82.390625 288.027344 C 82.445312 287.867188 82.503906 287.695312 82.460938 287.523438 C 82.441406 287.414062 82.363281 287.328125 82.261719 287.300781 C 81.871094 287.214844 81.65625 288.0625 81.488281 288.332031 C 81.222656 288.859375 81.070312 289.445312 81.015625 290.03125 C 81.085938 289.96875 81.152344 289.871094 81.21875 289.792969 C 80.816406 290.960938 80.429688 292.132812 80.035156 293.300781 C 79.890625 293.730469 79.753906 294.160156 79.628906 294.59375 C 79.484375 294.308594 79.339844 294.023438 79.195312 293.738281 C 79.410156 293.492188 79.550781 292.929688 79.652344 292.726562 C 79.96875 291.910156 80.285156 291.089844 80.601562 290.269531 C 81.035156 289.15625 81.453125 288.035156 81.808594 286.890625 C 81.9375 286.535156 81.992188 286.136719 82.0625 285.746094 C 82.316406 286.691406 82.566406 287.632812 82.816406 288.578125 C 82.246094 288.871094 81.824219 289.988281 81.546875 290.507812 Z M 83.539062 291.308594 C 83.011719 292.007812 82.542969 293.199219 82.253906 293.742188 C 82.570312 292.535156 82.949219 291.332031 83.21875 290.113281 C 83.324219 290.511719 83.429688 290.914062 83.535156 291.308594 Z M 84.308594 294.09375 C 83.972656 294.449219 83.679688 295.167969 83.542969 295.402344 C 83.734375 294.722656 83.917969 294.042969 84.101562 293.359375 C 84.167969 293.605469 84.238281 293.847656 84.308594 294.09375 Z M 85.339844 297.539062 C 85.050781 297.949219 84.796875 298.578125 84.671875 298.761719 C 84.273438 299.535156 83.894531 300.316406 83.492188 301.089844 C 83.917969 299.253906 84.351562 297.417969 84.734375 295.574219 C 84.925781 296.230469 85.128906 296.886719 85.339844 297.535156 Z M 86.042969 299.597656 C 85.851562 299.820312 85.75 300.117188 85.628906 300.382812 C 85.699219 299.949219 85.78125 299.523438 85.859375 299.09375 C 85.917969 299.261719 85.980469 299.429688 86.042969 299.597656 Z M 79.703125 278.265625 C 79.824219 278.59375 79.945312 278.929688 80.066406 279.257812 C 80.78125 281.253906 81.382812 283.285156 81.945312 285.328125 C 81.511719 286.023438 81.257812 286.808594 81.015625 287.589844 C 80.535156 289.011719 79.96875 290.402344 79.429688 291.808594 C 79.984375 288.792969 80.550781 285.769531 80.996094 282.734375 C 81.015625 282.53125 80.867188 282.277344 80.644531 282.273438 C 80.480469 282.289062 80.402344 282.402344 80.285156 282.527344 C 79.542969 283.796875 79.074219 285.210938 78.507812 286.5625 C 79.085938 284.429688 79.636719 282.273438 79.988281 280.089844 C 80.023438 279.429688 79.527344 279.285156 79.128906 279.78125 C 78.015625 281.433594 77.335938 283.335938 76.511719 285.140625 C 77.285156 282.492188 78.257812 279.902344 78.960938 277.230469 C 78.996094 276.769531 78.695312 276.558594 78.332031 276.890625 C 77.757812 277.589844 77.394531 278.449219 76.953125 279.234375 C 76.285156 280.542969 75.625 281.855469 74.933594 283.152344 C 75.601562 281.234375 76.390625 279.363281 77.039062 277.4375 C 77.191406 276.929688 77.433594 276.425781 77.449219 275.886719 C 77.449219 275.742188 77.371094 275.609375 77.246094 275.539062 C 76.605469 275.1875 75.601562 277.148438 75.277344 277.605469 C 75.492188 277.0625 75.707031 276.523438 75.910156 275.980469 C 76.046875 275.578125 76.257812 275.179688 76.285156 274.75 C 76.277344 274.660156 76.253906 274.59375 76.226562 274.535156 C 76.847656 274.339844 77.480469 274.15625 78.085938 273.90625 C 78.515625 275.390625 79.203125 276.804688 79.703125 278.265625 Z M 74.617188 284.761719 C 74.789062 284.570312 74.90625 284.320312 75.039062 284.101562 C 75.257812 283.703125 75.46875 283.300781 75.679688 282.898438 C 76.515625 281.320312 77.285156 279.710938 78.148438 278.144531 C 77.316406 280.972656 76.316406 283.59375 75.613281 286.441406 C 75.597656 286.496094 75.582031 286.554688 75.570312 286.613281 C 75.25 285.996094 74.933594 285.378906 74.613281 284.761719 Z M 75.9375 287.324219 C 75.972656 287.308594 76.003906 287.292969 76.027344 287.261719 C 76.21875 287.066406 76.339844 286.816406 76.453125 286.570312 C 77.445312 284.492188 78.214844 282.277344 79.421875 280.300781 C 79.097656 281.984375 78.714844 283.664062 78.285156 285.320312 C 77.929688 286.769531 77.394531 288.1875 77.152344 289.664062 C 77.15625 289.679688 77.160156 289.691406 77.164062 289.703125 C 76.757812 288.910156 76.347656 288.113281 75.9375 287.320312 Z M 74.398438 275.21875 C 74.65625 275.117188 74.914062 275.007812 75.171875 274.910156 C 74.644531 275.507812 74.214844 276.191406 73.738281 276.828125 C 73.960938 276.300781 74.175781 275.773438 74.390625 275.242188 C 74.394531 275.234375 74.398438 275.226562 74.398438 275.21875 Z M 80.007812 295.347656 C 80.121094 295.210938 80.175781 294.992188 80.25 294.847656 C 80.414062 294.464844 80.570312 294.085938 80.734375 293.703125 C 81.410156 292.210938 81.945312 290.613281 82.863281 289.238281 C 82.359375 291.597656 81.636719 293.902344 80.972656 296.21875 C 80.960938 296.300781 80.949219 296.378906 80.941406 296.457031 C 80.90625 296.675781 81.167969 296.835938 81.351562 296.714844 C 81.65625 296.515625 81.726562 296.089844 81.90625 295.792969 C 82.1875 295.179688 82.464844 294.578125 82.75 293.960938 C 83.0625 293.3125 83.359375 292.644531 83.730469 292.023438 C 83.757812 292.121094 83.785156 292.222656 83.8125 292.324219 C 83.359375 294.09375 82.859375 295.851562 82.320312 297.601562 C 82.175781 298.0625 82.015625 298.523438 81.859375 298.984375 C 81.238281 297.773438 80.621094 296.5625 80.007812 295.347656 Z M 82.558594 300.351562 C 82.445312 300.128906 82.332031 299.90625 82.21875 299.683594 C 82.894531 298.144531 83.519531 296.585938 84.304688 295.097656 C 83.933594 296.773438 83.5625 298.453125 83.171875 300.125 C 83.097656 300.445312 83.015625 300.765625 82.941406 301.085938 C 82.8125 300.839844 82.683594 300.589844 82.558594 300.351562 Z M 77.972656 272.929688 C 78.003906 273.011719 78.035156 273.09375 78.066406 273.175781 C 77.984375 273.097656 77.902344 273.046875 77.828125 273.058594 C 77.828125 273.058594 77.828125 273.058594 77.828125 273.0625 C 77.859375 273.070312 77.878906 273.09375 77.890625 273.121094 C 77.921875 273.203125 77.9375 273.289062 77.960938 273.371094 C 77.867188 273.414062 77.773438 273.464844 77.675781 273.496094 C 76.652344 273.808594 75.644531 274.164062 74.644531 274.542969 C 74.675781 274.414062 74.703125 274.28125 74.695312 274.144531 C 74.691406 274.132812 74.683594 274.125 74.679688 274.113281 C 75.804688 273.789062 76.929688 273.464844 77.96875 272.929688 Z M 70.078125 275.457031 C 71.1875 275.132812 72.292969 274.796875 73.40625 274.484375 C 73.164062 274.761719 72.9375 275.039062 72.714844 275.320312 C 72.660156 275.339844 72.601562 275.363281 72.546875 275.386719 C 71.84375 275.671875 71.132812 275.9375 70.417969 276.199219 C 70.304688 275.949219 70.1875 275.707031 70.078125 275.460938 Z M 70.125 276.890625 C 70.125 276.890625 70.136719 276.890625 70.140625 276.886719 C 70.21875 277.0625 70.300781 277.246094 70.378906 277.417969 C 70.554688 277.808594 70.734375 278.195312 70.917969 278.582031 C 70.648438 278.085938 70.382812 277.59375 70.109375 277.101562 C 70.09375 277.03125 70.027344 276.929688 70.125 276.890625 Z M 80.527344 299.226562 C 78.535156 295.167969 76.796875 290.992188 74.972656 286.859375 C 74.703125 286.230469 74.417969 285.609375 74.132812 284.988281 C 74.488281 285.675781 74.839844 286.367188 75.195312 287.0625 C 77.359375 291.265625 79.460938 295.503906 81.625 299.707031 C 81.617188 299.722656 81.613281 299.734375 81.609375 299.746094 C 81.570312 299.875 81.65625 300.015625 81.773438 300.0625 C 81.785156 300.066406 81.796875 300.066406 81.808594 300.070312 C 81.902344 300.25 81.996094 300.433594 82.089844 300.613281 C 82.085938 300.609375 82.085938 300.609375 82.085938 300.605469 C 82.316406 301.039062 82.539062 301.480469 82.761719 301.921875 C 82.75 301.992188 82.730469 302.0625 82.71875 302.132812 C 82.699219 302.226562 82.683594 302.324219 82.710938 302.414062 C 82.757812 302.589844 82.953125 302.679688 83.125 302.632812 C 83.496094 303.367188 83.882812 304.089844 84.328125 304.78125 C 84.175781 304.894531 84.027344 305.007812 83.871094 305.113281 C 82.742188 303.164062 81.585938 301.222656 80.53125 299.226562 Z M 80.527344 299.226562 " fill-opacity="1" fill-rule="nonzero"/></g></g></g><g clip-path="url(#2059ca9e93)"><g clip-path="url(#b318d2f7b3)"><g clip-path="url(#26d2e3d134)"><path fill="#32bcd6" d="M 88.871094 315.726562 C 89.019531 315.835938 89.179688 315.929688 89.351562 316.003906 C 89.691406 316.152344 90.070312 316.214844 90.441406 316.179688 C 90.8125 316.15625 91.191406 316.019531 91.554688 315.800781 C 93.203125 314.804688 94.476562 312.125 93.011719 310.8125 C 92.691406 310.550781 92.273438 310.425781 91.863281 310.453125 C 91.742188 310.390625 91.625 310.328125 91.5 310.269531 C 91.367188 310.117188 91.203125 310.046875 91.046875 310.070312 C 90.382812 309.816406 89.695312 309.730469 89.007812 310.140625 C 87.984375 310.449219 87.414062 311.488281 87.5625 312.53125 C 87.472656 313.65625 87.300781 315.640625 88.871094 315.722656 Z M 89.789062 314.855469 C 89.5625 314.765625 89.347656 314.636719 89.164062 314.476562 C 89.339844 314.535156 89.527344 314.570312 89.71875 314.582031 C 89.855469 314.589844 89.996094 314.589844 90.132812 314.574219 C 90.023438 314.675781 89.910156 314.769531 89.789062 314.855469 Z M 90.910156 312.8125 C 90.910156 312.78125 90.90625 312.757812 90.902344 312.730469 C 90.902344 312.730469 90.90625 312.730469 90.90625 312.730469 C 90.914062 312.742188 90.921875 312.753906 90.929688 312.761719 C 90.925781 312.769531 90.925781 312.773438 90.921875 312.777344 C 90.917969 312.789062 90.914062 312.800781 90.90625 312.8125 Z M 91.269531 311.167969 C 91.269531 311.167969 91.257812 311.15625 91.25 311.15625 C 91.253906 311.152344 91.261719 311.152344 91.265625 311.148438 C 91.265625 311.15625 91.265625 311.164062 91.269531 311.167969 Z M 90.171875 312.109375 C 90.351562 312.441406 90.441406 312.867188 90.304688 313.234375 C 90.117188 312.910156 90.097656 312.511719 90.144531 312.140625 C 90.152344 312.128906 90.160156 312.113281 90.164062 312.101562 C 90.167969 312.105469 90.167969 312.105469 90.167969 312.109375 Z M 89.824219 313.484375 C 89.851562 313.53125 89.878906 313.570312 89.914062 313.613281 C 89.914062 313.609375 89.910156 313.609375 89.90625 313.605469 C 89.90625 313.605469 89.90625 313.609375 89.910156 313.609375 C 89.863281 313.578125 89.84375 313.53125 89.824219 313.484375 Z M 90.546875 313.859375 C 90.621094 313.847656 90.683594 313.820312 90.746094 313.789062 C 90.734375 313.808594 90.726562 313.828125 90.714844 313.84375 C 90.625 313.898438 90.527344 313.9375 90.429688 313.96875 C 90.46875 313.933594 90.511719 313.902344 90.546875 313.859375 Z M 91.625 314.667969 C 91.285156 314.921875 90.882812 315.089844 90.449219 315.019531 C 90.703125 314.789062 90.921875 314.523438 91.109375 314.238281 C 91.34375 314.085938 91.554688 313.894531 91.707031 313.660156 C 92.132812 313.089844 92.09375 312.371094 91.773438 311.789062 C 91.804688 311.558594 91.816406 311.347656 91.808594 311.160156 C 93 312.140625 92.917969 313.75 91.625 314.667969 Z M 88.429688 312.417969 C 88.707031 311.789062 89.234375 311.320312 89.796875 310.941406 C 89.964844 310.992188 90.128906 311.058594 90.28125 311.140625 C 90.148438 311.234375 90.039062 311.347656 89.945312 311.464844 C 89.367188 311.890625 89.140625 312.835938 89.265625 313.503906 C 89.308594 313.734375 89.421875 313.902344 89.566406 314.011719 C 89.109375 313.929688 88.683594 313.679688 88.414062 313.292969 C 88.191406 313.023438 88.285156 312.699219 88.429688 312.417969 Z M 88.429688 312.417969 " fill-opacity="1" fill-rule="nonzero"/></g></g></g><g clip-path="url(#42a17e2a68)"><path fill="#32bcd6" d="M 277.679688 62.410156 C 277.484375 63.28125 277.324219 64.136719 277.132812 64.976562 C 275.648438 71.136719 273.144531 76.882812 269.886719 82.304688 C 267.5625 86.175781 264.964844 89.871094 262.351562 93.550781 C 262.273438 93.660156 262.191406 93.789062 262.109375 93.886719 C 261.867188 94.144531 261.949219 94.324219 262.191406 94.53125 C 263.207031 95.421875 264.335938 96.144531 265.578125 96.710938 C 266.597656 97.164062 267.644531 97.519531 268.710938 97.839844 C 269.03125 97.9375 269.339844 98.035156 269.628906 98.210938 C 270.4375 98.742188 270.628906 99.710938 270.046875 100.488281 C 269.789062 100.839844 269.453125 101.082031 269.082031 101.308594 C 263.578125 104.664062 258.222656 108.261719 252.640625 111.488281 C 248.492188 113.894531 244.394531 116.378906 240.507812 119.21875 C 240.28125 119.378906 240.039062 119.539062 239.765625 119.636719 C 238.714844 120.007812 237.765625 119.1875 237.972656 118.105469 C 238.039062 117.796875 238.152344 117.523438 238.246094 117.234375 C 239.085938 114.847656 240.121094 112.539062 240.910156 110.132812 C 242.21875 106.164062 243.203125 102.101562 244.136719 98.019531 C 245.105469 93.808594 246.074219 89.597656 246.910156 85.351562 C 247.234375 83.738281 247.429688 82.09375 247.6875 80.449219 C 247.765625 79.964844 247.894531 79.480469 247.976562 78.996094 C 248.074219 78.511719 248.363281 78.140625 248.734375 77.835938 C 249.269531 77.382812 249.929688 77.542969 250.1875 78.1875 C 250.460938 78.914062 250.800781 79.609375 251.042969 80.367188 C 251.269531 81.09375 251.574219 81.785156 252.238281 82.253906 C 252.332031 82.320312 252.414062 82.417969 252.460938 82.527344 C 252.625 83.011719 252.996094 83.367188 253.300781 83.753906 C 255.109375 86.09375 256.914062 88.417969 258.738281 90.757812 C 258.949219 91.03125 259.175781 91.304688 259.367188 91.5625 C 259.625 91.597656 259.691406 91.402344 259.769531 91.289062 C 262.382812 87.546875 265.015625 83.835938 267.355469 79.914062 C 270.4375 74.738281 272.886719 69.28125 274.308594 63.378906 C 274.46875 62.683594 274.582031 61.992188 274.757812 61.296875 C 274.890625 60.765625 274.777344 60.457031 274.292969 60.117188 C 271.453125 58.152344 268.839844 55.90625 266.515625 53.328125 C 264.707031 51.308594 263.125 49.132812 261.949219 46.695312 C 261.207031 45.144531 260.660156 43.550781 260.546875 41.824219 C 260.511719 41.273438 260.546875 40.726562 260.660156 40.210938 C 261.0625 38.433594 262.417969 37.207031 264.222656 36.917969 C 265.644531 36.691406 267 36.933594 268.320312 37.449219 C 270.917969 38.449219 272.921875 40.210938 274.46875 42.484375 C 276.148438 44.9375 277.179688 47.664062 277.746094 50.566406 C 278.277344 53.308594 278.292969 56.070312 278.082031 58.828125 C 277.96875 60.230469 277.953125 60.265625 279.246094 60.894531 C 282.746094 62.621094 286.410156 63.8125 290.3125 64.21875 C 294.507812 64.652344 298.171875 63.539062 301.140625 60.441406 C 302.285156 59.246094 303.140625 57.875 303.832031 56.390625 C 304.527344 54.921875 305.074219 53.390625 305.558594 51.824219 C 305.703125 51.375 305.640625 51.035156 305.382812 50.632812 C 302.671875 46.390625 300.234375 41.984375 298.121094 37.417969 C 297.476562 36.046875 296.910156 34.644531 296.539062 33.175781 C 296.203125 31.835938 296.074219 30.480469 296.445312 29.109375 C 296.636719 28.414062 296.929688 27.769531 297.347656 27.207031 C 298.6875 25.382812 300.960938 24.945312 302.882812 26.125 C 303.882812 26.738281 304.65625 27.609375 305.285156 28.578125 C 306.125 29.851562 306.753906 31.222656 307.1875 32.675781 C 308.511719 36.949219 309.191406 41.324219 308.898438 45.808594 C 308.785156 47.484375 308.542969 49.148438 308.15625 50.777344 C 308.078125 51.132812 308.09375 51.40625 308.300781 51.714844 C 314.5625 60.925781 321.726562 69.332031 330.566406 76.203125 C 333.035156 78.125 335.648438 79.820312 338.359375 81.351562 C 339.988281 82.269531 341.683594 83.03125 343.457031 83.640625 C 344.652344 84.046875 345.878906 84.304688 347.152344 84.144531 C 347.25 84.125 347.347656 84.125 347.445312 84.125 C 347.832031 84.160156 348.089844 84.382812 348.121094 84.722656 C 348.152344 85.078125 347.910156 85.402344 347.492188 85.433594 C 346.507812 85.53125 345.523438 85.628906 344.523438 85.464844 C 342.441406 85.144531 340.507812 84.382812 338.652344 83.464844 C 335.40625 81.851562 332.375 79.882812 329.503906 77.6875 C 323.582031 73.15625 318.371094 67.894531 313.691406 62.101562 C 311.660156 59.585938 309.691406 57.019531 307.851562 54.359375 C 307.722656 54.164062 307.609375 53.957031 307.414062 53.828125 C 307.1875 54.019531 307.171875 54.261719 307.09375 54.472656 C 306.445312 56.246094 305.703125 57.988281 304.671875 59.585938 C 302.574219 62.828125 299.71875 65.070312 295.945312 66.039062 C 293.539062 66.652344 291.121094 66.589844 288.699219 66.183594 C 285.070312 65.570312 281.617188 64.363281 278.339844 62.683594 C 278.164062 62.570312 278.003906 62.425781 277.679688 62.410156 Z M 275.164062 58.167969 C 275.4375 55.554688 275.484375 52.972656 275.019531 50.390625 C 274.566406 47.90625 273.726562 45.550781 272.324219 43.4375 C 271.179688 41.710938 269.710938 40.339844 267.820312 39.449219 C 267.015625 39.078125 266.175781 38.835938 265.304688 38.789062 C 263.496094 38.691406 262.433594 39.691406 262.433594 41.484375 C 262.433594 42.839844 262.851562 44.082031 263.386719 45.308594 C 264.175781 47.148438 265.273438 48.792969 266.515625 50.359375 C 268.871094 53.328125 271.679688 55.8125 274.726562 58.019531 C 274.824219 58.101562 274.921875 58.214844 275.164062 58.167969 Z M 306.351562 48.292969 C 306.542969 47.210938 306.640625 46.148438 306.6875 45.097656 C 306.898438 41.304688 306.335938 37.613281 305.367188 33.964844 C 304.960938 32.480469 304.414062 31.046875 303.589844 29.738281 C 303.140625 29.011719 302.605469 28.351562 301.898438 27.851562 C 300.816406 27.109375 299.636719 27.316406 298.847656 28.382812 C 298.589844 28.738281 298.414062 29.109375 298.300781 29.527344 C 298.058594 30.367188 298.089844 31.207031 298.25 32.0625 C 298.542969 33.609375 299.136719 35.046875 299.800781 36.464844 C 301.621094 40.417969 303.703125 44.226562 305.945312 47.9375 C 306.027344 48.050781 306.074219 48.226562 306.351562 48.292969 Z M 247.152344 111.570312 C 252.832031 108.425781 258.433594 105.132812 263.820312 101.488281 C 263.222656 101.472656 262.675781 101.453125 262.144531 101.792969 C 260.191406 103.035156 258.222656 104.246094 256.335938 105.570312 C 256.058594 105.761719 255.785156 105.921875 255.496094 106.085938 C 255.1875 106.246094 254.816406 106.328125 254.558594 106.117188 C 254.15625 105.792969 253.882812 105.972656 253.589844 106.246094 C 253.429688 106.390625 253.253906 106.503906 253.089844 106.648438 C 251.105469 108.296875 249.121094 109.941406 247.152344 111.570312 Z M 259.640625 97.195312 C 258.691406 98.390625 257.753906 99.550781 256.769531 100.792969 C 257.285156 100.808594 257.691406 100.777344 258.011719 100.535156 C 258.933594 99.839844 259.820312 99.113281 260.753906 98.390625 C 260.417969 97.9375 260.09375 97.550781 259.640625 97.195312 Z M 242.070312 114.75 C 242.105469 114.78125 242.152344 114.8125 242.183594 114.828125 C 242.960938 114.328125 243.75 113.828125 244.636719 113.265625 C 243.925781 113.054688 243.574219 112.667969 243.734375 112.039062 C 243.847656 111.617188 243.734375 111.328125 243.425781 110.957031 C 243.023438 112.28125 242.570312 113.523438 242.070312 114.75 Z M 249.15625 86.464844 C 249.445312 86.5 249.621094 86.449219 249.71875 86.207031 C 249.976562 85.59375 250.15625 84.964844 250.347656 84.335938 C 250.382812 84.222656 250.382812 84.09375 250.300781 83.996094 C 250.105469 83.722656 249.914062 83.449219 249.621094 83.046875 C 249.445312 84.304688 249.234375 85.367188 249.15625 86.464844 Z M 266.449219 99.808594 C 265.046875 99.292969 263.757812 98.710938 262.515625 98.019531 C 262.660156 98.503906 263.0625 98.632812 263.433594 98.792969 C 264.257812 99.164062 265.128906 99.503906 265.351562 100.597656 C 265.722656 100.324219 266.09375 100.179688 266.449219 99.808594 Z M 252.996094 91.128906 C 252.640625 92.144531 252.300781 93.046875 251.976562 93.96875 C 252.625 93.386719 252.960938 92.53125 253.898438 92.257812 C 253.640625 91.871094 253.367188 91.546875 252.996094 91.128906 Z M 251.703125 85.886719 C 251.429688 86.289062 251.316406 86.773438 251.15625 87.222656 C 251.074219 87.464844 251.300781 87.53125 251.445312 87.644531 C 251.589844 87.757812 251.71875 87.773438 251.882812 87.644531 C 252.671875 87 252.671875 86.949219 252.042969 86.191406 C 251.945312 86.078125 251.882812 85.949219 251.703125 85.886719 Z M 247.734375 100.808594 C 248.25 99.277344 248.75 97.742188 249.269531 96.226562 C 249.21875 96.210938 249.171875 96.195312 249.136719 96.179688 C 248.507812 97.679688 247.589844 99.066406 247.734375 100.808594 Z M 254.285156 95.5 C 254.6875 95.066406 255.074219 94.660156 255.6875 94.515625 C 255.429688 94.144531 255.238281 93.855469 254.867188 93.582031 C 254.722656 94.273438 254.429688 94.855469 254.285156 95.5 Z M 243.863281 109.761719 C 244.765625 109.070312 244.605469 108.183594 244.554688 107.328125 C 244.332031 108.101562 244.105469 108.890625 243.863281 109.761719 Z M 250.089844 90.210938 C 250.140625 90.242188 250.1875 90.257812 250.234375 90.289062 C 250.429688 89.886719 250.640625 89.5 250.832031 89.097656 C 250.882812 88.984375 250.863281 88.855469 250.734375 88.804688 C 250.621094 88.773438 250.558594 88.855469 250.527344 88.949219 C 250.382812 89.371094 250.234375 89.789062 250.089844 90.210938 Z M 250.089844 90.210938 " fill-opacity="1" fill-rule="nonzero"/></g><g clip-path="url(#2262a59d14)"><g clip-path="url(#cce21f10d5)"><g clip-path="url(#4e19b7efcf)"><path fill="#32bcd6" d="M 71.414062 58.769531 C 71.222656 61.210938 71.113281 63.660156 70.632812 66.070312 C 70.421875 67.109375 70.179688 68.140625 69.605469 69.0625 C 68.808594 70.351562 67.65625 70.800781 66.175781 70.660156 C 63.410156 70.398438 61.09375 68.9375 58.605469 67.933594 C 57.925781 67.660156 57.253906 67.359375 56.460938 67.019531 C 56.53125 68.25 56.617188 69.375 56.648438 70.5 C 56.699219 72.113281 55.75 73.257812 54.476562 73.175781 C 53.589844 73.121094 52.808594 72.355469 53.054688 71.570312 C 53.460938 70.289062 53.132812 69.035156 53.128906 67.773438 C 53.125 67.089844 53.167969 66.429688 53.300781 65.765625 C 53.644531 64.039062 55.066406 63.128906 56.765625 63.550781 C 58.8125 64.058594 60.6875 65.011719 62.640625 65.761719 C 63.566406 66.117188 64.488281 66.476562 65.410156 66.828125 C 66.316406 67.175781 66.8125 66.859375 66.992188 65.910156 C 67.4375 63.566406 67.5625 61.1875 67.78125 58.824219 C 67.890625 57.660156 67.976562 56.492188 68.550781 55.433594 C 69.113281 54.402344 70.511719 53.71875 71.667969 53.910156 C 72.449219 54.035156 73.164062 54.3125 73.859375 54.695312 C 75.96875 55.859375 78.042969 57.09375 80.292969 57.980469 C 81.1875 58.335938 81.789062 59.417969 81.546875 60.164062 C 81.289062 60.960938 79.847656 61.773438 79.046875 61.429688 C 77.679688 60.847656 76.359375 60.160156 75.03125 59.484375 C 74.210938 59.066406 73.414062 58.601562 72.621094 58.132812 C 71.84375 57.667969 71.488281 57.84375 71.414062 58.769531 Z M 48.703125 51.125 C 49.269531 50.800781 49.757812 51.523438 50.234375 51.84375 C 52.320312 53.25 54.3125 54.800781 56.5 56.054688 C 58.636719 57.277344 60.164062 56.558594 60.644531 54.1875 C 61.066406 52.105469 61.515625 50.023438 61.972656 47.949219 C 62.453125 45.769531 62.9375 43.585938 63.472656 41.421875 C 63.8125 40.058594 64.160156 39.917969 65.257812 40.765625 C 66.832031 41.976562 68.316406 43.308594 69.878906 44.539062 C 71.042969 45.453125 72.175781 46.410156 73.570312 47.023438 C 74.558594 47.460938 75.027344 46.6875 75.609375 46.320312 C 76.109375 46 76.167969 45.351562 75.644531 44.886719 C 75.503906 44.457031 75.5 44.015625 75.0625 43.765625 C 72.632812 42.382812 70.710938 40.351562 68.535156 38.652344 C 67.5 37.84375 66.480469 37.019531 65.21875 36.5625 C 63.628906 35.984375 61.613281 36.683594 60.855469 38.207031 C 60.414062 39.089844 60.027344 40.011719 59.808594 40.992188 C 59.054688 44.34375 58.296875 47.699219 57.535156 51.050781 C 57.261719 52.257812 57.246094 52.265625 56.25 51.597656 C 54.15625 50.203125 52.1875 48.621094 49.980469 47.394531 C 46.117188 45.246094 44.894531 47.859375 44.867188 50.59375 C 44.847656 52.4375 44.964844 54.285156 44.886719 56.125 C 44.765625 59.0625 45.105469 62.007812 44.722656 64.945312 C 44.644531 65.550781 44.992188 66.050781 45.601562 66.394531 C 46.652344 66.980469 48.121094 65.835938 48.148438 64.308594 C 48.214844 60.476562 48.320312 56.648438 48.429688 52.816406 C 48.449219 52.230469 48.167969 51.425781 48.703125 51.125 Z M 115.335938 116.484375 C 113.816406 115.199219 112.203125 115.433594 111.121094 117.113281 C 110.292969 118.394531 109.554688 119.726562 108.894531 121.101562 C 108.617188 121.675781 108.398438 121.9375 107.894531 121.222656 C 107.171875 120.214844 106.269531 119.351562 105.332031 118.53125 C 104.765625 118.035156 104.183594 117.957031 103.464844 118.230469 C 102.53125 118.585938 101.820312 119.109375 101.324219 120.011719 C 100.726562 121.097656 100 122.109375 99.367188 123.171875 C 98.75 124.207031 98.117188 125.238281 97.605469 126.324219 C 97.265625 127.039062 97.359375 127.820312 98.085938 128.316406 C 98.707031 128.742188 99.308594 128.992188 100.085938 128.371094 C 100.574219 127.980469 100.960938 127.578125 101.273438 127.066406 C 102.050781 125.796875 102.855469 124.546875 103.585938 123.25 C 104.003906 122.511719 104.328125 122.589844 104.796875 123.171875 C 105.601562 124.160156 106.398438 125.160156 107.261719 126.09375 C 108.472656 127.402344 109.960938 127.226562 110.832031 125.695312 C 111.125 125.175781 111.335938 124.597656 111.546875 124.035156 C 112.042969 122.742188 112.636719 121.496094 113.34375 120.300781 C 113.5625 119.929688 113.8125 119.679688 114.148438 120.066406 C 115.390625 121.484375 117.066406 122.542969 117.777344 124.417969 C 118.152344 125.414062 119.269531 125.71875 120.117188 125.097656 C 121.324219 124.214844 121.324219 124.214844 120.6875 122.75 C 120.109375 121.425781 117.335938 118.175781 115.335938 116.484375 Z M 172.734375 39.898438 C 171.757812 38.777344 170.746094 37.695312 169.726562 36.617188 C 167.640625 34.40625 165.367188 32.5 162.789062 30.886719 C 160.300781 29.328125 157.539062 30.519531 156.753906 33.246094 C 156.035156 35.734375 155.03125 38.125 154.273438 40.597656 C 153.988281 41.539062 153.652344 41.449219 152.988281 40.90625 C 150.574219 38.925781 148.140625 36.96875 145.40625 35.425781 C 143.4375 34.316406 142.171875 34.648438 140.960938 36.542969 C 139.539062 38.769531 138.683594 41.265625 137.523438 43.613281 C 136.992188 44.695312 136.492188 45.796875 136.066406 46.921875 C 135.777344 47.671875 135.914062 48.429688 136.660156 48.886719 C 137.332031 49.296875 137.941406 49.515625 138.792969 48.953125 C 139.488281 48.488281 139.613281 47.902344 139.894531 47.273438 C 141.066406 44.648438 142.292969 42.054688 143.488281 39.441406 C 143.796875 38.765625 144.15625 38.929688 144.660156 39.238281 C 147.515625 40.992188 150.003906 43.230469 152.640625 45.265625 C 154.652344 46.820312 155.960938 46.519531 156.84375 44.105469 C 157.96875 41.042969 159.015625 37.953125 160.054688 34.859375 C 160.332031 34.035156 160.75 33.832031 161.460938 34.289062 C 165.21875 36.710938 168.585938 39.539062 170.945312 43.417969 C 171.359375 44.101562 172.265625 44.355469 172.914062 43.933594 C 174.125 43.148438 174.195312 42.835938 173.519531 41.273438 C 173.300781 40.792969 173.09375 40.3125 172.734375 39.898438 Z M 114.054688 103.570312 C 113.195312 102.828125 112.292969 101.902344 111.089844 102.175781 C 109.757812 102.476562 108.691406 103.28125 108.285156 104.765625 C 107.902344 106.164062 107.484375 107.554688 107.183594 108.976562 C 107.089844 109.425781 106.996094 109.835938 106.414062 109.191406 C 105.140625 107.800781 103.605469 106.691406 102 105.71875 C 101.253906 105.265625 100.503906 104.746094 99.59375 104.628906 C 98.097656 104.4375 96.984375 105.382812 96.316406 107.488281 C 95.570312 109.851562 94.863281 112.226562 94.152344 114.597656 C 93.976562 115.179688 93.910156 115.78125 94.09375 116.410156 C 94.140625 116.46875 94.207031 116.554688 94.265625 116.640625 C 94.652344 117.222656 95.304688 117.644531 95.878906 117.464844 C 96.515625 117.261719 97.277344 116.933594 97.523438 116.121094 C 98.136719 114.085938 98.769531 112.058594 99.359375 110.019531 C 99.75 108.652344 99.796875 108.613281 101.019531 109.421875 C 102.773438 110.585938 104.261719 112.042969 105.675781 113.597656 C 107.320312 115.402344 108.964844 115.035156 109.878906 112.785156 C 110.664062 110.859375 110.84375 108.796875 111.359375 106.808594 C 111.566406 106.011719 111.808594 106.027344 112.28125 106.554688 C 113.699219 108.125 115.15625 109.675781 116.113281 111.597656 C 116.40625 112.183594 116.878906 112.390625 117.492188 112.402344 C 118.125 112.417969 118.617188 112.113281 118.882812 111.59375 C 119.257812 110.851562 119.222656 110.027344 118.753906 109.359375 C 117.320312 107.324219 115.960938 105.222656 114.054688 103.570312 Z M 169.539062 49.757812 C 168.414062 47.898438 166.84375 46.46875 165.171875 45.152344 C 163.679688 43.976562 162.398438 44.261719 161.550781 46 C 160.085938 48.984375 159.039062 52.132812 158.070312 55.3125 C 158 55.535156 158.070312 55.859375 157.734375 55.894531 C 157.480469 55.921875 157.433594 55.632812 157.296875 55.488281 C 155.558594 53.628906 153.804688 51.785156 151.796875 50.207031 C 149.789062 48.628906 148.058594 49.125 147.355469 51.558594 C 146.726562 53.734375 145.976562 55.878906 145.542969 58.113281 C 145.179688 59.988281 144.664062 61.835938 144.332031 63.71875 C 144.148438 64.757812 144.953125 65.605469 145.953125 65.675781 C 146.910156 65.742188 147.917969 64.917969 148.070312 64.011719 C 148.589844 60.863281 149.324219 57.769531 150.214844 54.703125 C 150.441406 53.925781 150.671875 54.007812 151.167969 54.453125 C 152.964844 56.070312 154.617188 57.839844 156.160156 59.6875 C 157.695312 61.527344 159.972656 61.382812 160.824219 58.769531 C 161.898438 55.472656 162.703125 52.078125 164.300781 48.789062 C 165.605469 50.347656 167.226562 51.5 167.890625 53.4375 C 168.082031 53.996094 168.570312 54.429688 169.265625 54.449219 C 169.976562 54.46875 170.496094 54.140625 170.824219 53.535156 C 171.25 52.757812 171.25 51.960938 170.726562 51.226562 C 170.363281 50.714844 169.863281 50.289062 169.539062 49.757812 Z M 169.539062 49.757812 " fill-opacity="1" fill-rule="nonzero"/></g></g></g></svg>