<svg xmlns="http://www.w3.org/2000/svg" xmlns:xlink="http://www.w3.org/1999/xlink" width="6912" zoomAndPan="magnify" viewBox="0 0 5184 2592.000001" height="3456" preserveAspectRatio="xMidYMid meet" version="1.0"><defs><clipPath id="809a45785e"><path d="M 1 475 L 5182.996094 475 L 5182.996094 2118 L 1 2118 Z M 1 475 " clip-rule="nonzero"/></clipPath></defs><g clip-path="url(#809a45785e)"><path fill="#ec6ed5" d="M 3212.65625 534.710938 C 2988.144531 601.175781 2780.167969 726.566406 2643.867188 920.34375 C 1970.394531 542.660156 1099.578125 714.308594 497.375 1155.390625 C 301.222656 1302.140625 100.425781 1470.371094 0.996094 1699.488281 C 43.679688 1726.386719 86.445312 1753.175781 129.289062 1779.859375 C 160.464844 1798.269531 191.550781 1816.847656 222.546875 1835.597656 C 328.773438 1508.671875 875.902344 1180.417969 1180.425781 1077.09375 C 1610.417969 930.46875 2113.171875 909.242188 2517.8125 1139.496094 C 2407.046875 1386.050781 2401.164062 1701.199219 2574.863281 1920.441406 C 2661.339844 2024.695312 2785.878906 2115.15625 2925.859375 2117.507812 C 3145.957031 2127.242188 3301.945312 1931.742188 3300.242188 1722.191406 C 3281.558594 1439.855469 3069.882812 1222.027344 2856.550781 1058.519531 C 3202.535156 617.230469 3892.21875 676.933594 4346.75 905.105469 C 4541.144531 1002.183594 4722.3125 1126.382812 4878.09375 1278.210938 C 4913.796875 1313.566406 4948.320312 1350.03125 4981.671875 1387.609375 C 4986.777344 1383.632812 4991.878906 1379.65625 4996.972656 1375.679688 C 5038.15625 1343.480469 5079.472656 1311.503906 5121.339844 1280.222656 C 5141.617188 1265.089844 5162.1875 1250.3125 5183.128906 1236.085938 C 5087.695312 1096.265625 4835.160156 908.328125 4746.941406 846.367188 C 4484.925781 668.664062 4188.734375 537.410156 3873.144531 496.257812 C 3653.007812 465.265625 3425.699219 463.542969 3212.65625 534.710938 Z M 3047.414062 1733.117188 C 3015.589844 1978.546875 2777.96875 1828.933594 2723.964844 1679.222656 C 2718.585938 1664.953125 2713.871094 1650.472656 2709.816406 1635.773438 C 2705.757812 1621.078125 2702.382812 1606.226562 2699.683594 1591.21875 C 2696.984375 1576.214844 2694.976562 1561.117188 2693.65625 1545.925781 C 2692.335938 1530.734375 2691.710938 1515.519531 2691.78125 1500.269531 C 2691.945312 1481.714844 2692.929688 1463.199219 2694.738281 1444.730469 C 2696.546875 1426.261719 2699.171875 1407.90625 2702.613281 1389.671875 C 2706.054688 1371.433594 2710.296875 1353.386719 2715.34375 1335.527344 C 2720.390625 1317.667969 2726.21875 1300.070312 2732.828125 1282.726562 C 2874.738281 1399.140625 3026.945312 1540.496094 3047.414062 1733.117188 Z M 3047.414062 1733.117188 " fill-opacity="1" fill-rule="nonzero"/></g></svg>