<svg xmlns="http://www.w3.org/2000/svg" xmlns:xlink="http://www.w3.org/1999/xlink" width="6912" zoomAndPan="magnify" viewBox="0 0 5184 2592.000001" height="3456" preserveAspectRatio="xMidYMid meet" version="1.0"><defs><clipPath id="02b561def7"><path d="M 30 591 L 5150 591 L 5150 1434 L 30 1434 Z M 30 591 " clip-rule="nonzero"/></clipPath><clipPath id="177b477d72"><path d="M 1802.242188 -1198.550781 L 5205.28125 1169.53125 L 3381.898438 3789.808594 L -21.140625 1421.726562 Z M 1802.242188 -1198.550781 " clip-rule="nonzero"/></clipPath><clipPath id="6ec8e41433"><path d="M 1802.242188 -1198.550781 L 5205.28125 1169.53125 L 3381.898438 3789.808594 L -21.140625 1421.726562 Z M 1802.242188 -1198.550781 " clip-rule="nonzero"/></clipPath></defs><g clip-path="url(#02b561def7)"><g clip-path="url(#177b477d72)"><g clip-path="url(#6ec8e41433)"><path fill="#ec6ed5" d="M 676.121094 800.464844 C 1042.027344 705.085938 1076.652344 1155.082031 1393.695312 1184.019531 C 1418.25 1185.601562 1442.820312 1185.945312 1467.410156 1185.054688 C 1492 1184.164062 1516.480469 1182.042969 1540.855469 1178.6875 C 1565.234375 1175.335938 1589.378906 1170.765625 1613.292969 1164.984375 C 1637.210938 1159.199219 1660.777344 1152.234375 1683.992188 1144.078125 C 1998.988281 1036.472656 2078.199219 675.253906 2427.71875 602.257812 C 2440.417969 599.457031 2453.214844 597.199219 2466.105469 595.480469 C 2478.996094 593.765625 2491.9375 592.59375 2504.925781 591.96875 C 2517.914062 591.34375 2530.910156 591.265625 2543.90625 591.738281 C 2556.902344 592.207031 2569.855469 593.226562 2582.765625 594.792969 C 2595.675781 596.355469 2608.496094 598.460938 2621.230469 601.109375 C 2633.960938 603.757812 2646.5625 606.9375 2659.023438 610.648438 C 2671.488281 614.359375 2683.773438 618.585938 2695.882812 623.335938 C 2707.988281 628.082031 2719.875 633.332031 2731.539062 639.082031 C 2905.375 723.21875 2918.648438 940.421875 3042.523438 1043.71875 C 3158.378906 1140.414062 3440.023438 1095.0625 3595.191406 1030.277344 C 3985.90625 866.5 4202.71875 485.042969 4572.964844 731.703125 C 4689.054688 810.335938 4800.355469 895.246094 4906.867188 986.4375 C 5092.542969 1150.644531 5136.984375 1168.953125 5147.515625 1202.941406 C 5158.050781 1236.929688 5120.921875 1258.707031 5089.785156 1242.332031 C 5076.386719 1236.144531 5063.699219 1228.742188 5051.726562 1220.117188 C 4340.464844 631.566406 4382.339844 632.21875 3907.996094 951.265625 C 3759.125 1051.15625 3621.210938 1135.882812 3427.535156 1170.617188 C 3321.28125 1189.671875 3198.101562 1195.324219 3094.683594 1165.273438 C 2912.160156 1112.332031 2879.578125 948.03125 2790.585938 807.761719 C 2716.550781 691.328125 2566.035156 657.605469 2434.914062 689.878906 C 2073.164062 778.992188 2048.363281 1220.804688 1512.035156 1269.828125 C 1020.785156 1314.609375 1023.894531 808.050781 705.15625 882.730469 C 574.152344 913.664062 406.835938 1009.0625 271.777344 1171.273438 C 171.375 1291.871094 61.726562 1478.683594 34.6875 1424.253906 C 20.222656 1394.453125 47.296875 1328.640625 66.238281 1299.085938 C 79.34375 1278.496094 412.601562 868.601562 676.121094 800.464844 Z M 676.121094 800.464844 " fill-opacity="1" fill-rule="nonzero"/></g></g></g></svg>