<svg xmlns="http://www.w3.org/2000/svg" xmlns:xlink="http://www.w3.org/1999/xlink" width="320" zoomAndPan="magnify" viewBox="0 0 240 239.999995" height="320" preserveAspectRatio="xMidYMid meet" version="1.0"><defs><clipPath id="c44d9b479f"><path d="M 38.25 38.25 L 201.75 38.25 L 201.75 201.75 L 38.25 201.75 Z M 38.25 38.25 " clip-rule="nonzero"/></clipPath></defs><g clip-path="url(#c44d9b479f)"><path fill="#ec6ed5" d="M 120 201.75 C 119.742188 201.75 119.53125 201.550781 119.511719 201.296875 C 116.980469 164.59375 114.648438 146.164062 104.242188 135.757812 C 93.835938 125.351562 75.40625 123.019531 38.703125 120.484375 C 38.449219 120.46875 38.25 120.257812 38.25 120 C 38.25 119.742188 38.449219 119.53125 38.703125 119.511719 C 75.40625 116.980469 93.835938 114.648438 104.242188 104.242188 C 114.648438 93.835938 116.980469 75.40625 119.515625 38.703125 C 119.53125 38.449219 119.742188 38.25 120 38.25 C 120.257812 38.25 120.46875 38.449219 120.484375 38.703125 C 123.019531 75.40625 125.351562 93.835938 135.757812 104.242188 C 146.164062 114.648438 164.59375 116.980469 201.296875 119.515625 C 201.550781 119.53125 201.75 119.742188 201.75 120 C 201.75 120.257812 201.550781 120.46875 201.296875 120.488281 C 164.59375 123.019531 146.164062 125.351562 135.757812 135.757812 C 125.351562 146.164062 123.019531 164.59375 120.484375 201.296875 C 120.46875 201.550781 120.257812 201.75 120 201.75 Z M 45.597656 120 C 78.046875 122.398438 94.96875 125.105469 104.929688 135.070312 C 114.894531 145.03125 117.601562 161.953125 120 194.402344 C 122.398438 161.953125 125.105469 145.03125 135.070312 135.070312 C 145.03125 125.105469 161.953125 122.398438 194.402344 120 C 161.949219 117.601562 145.03125 114.894531 135.070312 104.929688 C 125.105469 94.96875 122.398438 78.046875 120 45.597656 C 117.601562 78.046875 114.894531 94.96875 104.929688 104.929688 C 94.96875 114.894531 78.046875 117.601562 45.597656 120 Z M 45.597656 120 " fill-opacity="1" fill-rule="nonzero"/></g></svg>