<svg xmlns="http://www.w3.org/2000/svg" xmlns:xlink="http://www.w3.org/1999/xlink" width="500" zoomAndPan="magnify" viewBox="0 0 375 374.999991" height="500" preserveAspectRatio="xMidYMid meet" version="1.0"><defs><clipPath id="44778bdec3"><path d="M 157 60.140625 L 218 60.140625 L 218 120 L 157 120 Z M 157 60.140625 " clip-rule="nonzero"/></clipPath><clipPath id="b6a705fa4a"><path d="M 287 50 L 340 50 L 340 104 L 287 104 Z M 287 50 " clip-rule="nonzero"/></clipPath><clipPath id="fda450710a"><path d="M 283.320312 52.050781 L 332.253906 44.585938 L 340.511719 98.710938 L 291.578125 106.175781 Z M 283.320312 52.050781 " clip-rule="nonzero"/></clipPath><clipPath id="c2c16c63fd"><path d="M 283.320312 52.050781 L 332.253906 44.585938 L 340.511719 98.710938 L 291.578125 106.175781 Z M 283.320312 52.050781 " clip-rule="nonzero"/></clipPath><clipPath id="02cd75be00"><path d="M 33 52 L 85 52 L 85 107 L 33 107 Z M 33 52 " clip-rule="nonzero"/></clipPath><clipPath id="9d71542250"><path d="M 36.414062 112.707031 L 23.234375 64.992188 L 76.007812 50.414062 L 89.1875 98.128906 Z M 36.414062 112.707031 " clip-rule="nonzero"/></clipPath><clipPath id="28c41f98ac"><path d="M 36.414062 112.707031 L 23.234375 64.992188 L 76.007812 50.414062 L 89.1875 98.128906 Z M 36.414062 112.707031 " clip-rule="nonzero"/></clipPath><clipPath id="fd8789f7b2"><path d="M 139 322.542969 L 236 322.542969 L 236 331.542969 L 139 331.542969 Z M 139 322.542969 " clip-rule="nonzero"/></clipPath></defs><path fill="#ec6ed5" d="M 75.003906 235.300781 C 75.003906 244.167969 82.226562 251.390625 91.097656 251.390625 L 283.894531 251.390625 C 292.769531 251.390625 299.992188 244.167969 299.992188 235.300781 L 299.992188 223.722656 L 75.003906 223.722656 Z M 187.5 229.015625 C 192.203125 229.015625 196.03125 232.855469 196.03125 237.550781 C 196.03125 242.257812 192.195312 246.09375 187.5 246.09375 C 182.796875 246.09375 178.96875 242.257812 178.96875 237.550781 C 178.96875 232.855469 182.796875 229.015625 187.5 229.015625 Z M 187.5 229.015625 " fill-opacity="1" fill-rule="nonzero"/><path fill="#ec6ed5" d="M 283.902344 88.667969 L 224.308594 88.667969 C 224.328125 89.109375 224.335938 89.554688 224.335938 90 C 224.335938 110.3125 207.8125 126.835938 187.5 126.835938 C 167.1875 126.835938 150.664062 110.3125 150.664062 90 C 150.664062 89.554688 150.667969 89.109375 150.691406 88.667969 L 91.097656 88.667969 C 82.226562 88.667969 75.003906 95.878906 75.003906 104.757812 L 75.003906 216.75 L 299.996094 216.75 L 299.996094 104.757812 C 299.996094 95.878906 292.773438 88.667969 283.902344 88.667969 Z M 245.917969 145.316406 C 221.058594 161.886719 212.078125 200.527344 211.988281 200.914062 C 211.65625 202.382812 210.414062 203.484375 208.910156 203.621094 C 208.800781 203.632812 208.695312 203.632812 208.582031 203.632812 C 207.203125 203.632812 205.941406 202.820312 205.382812 201.535156 C 193.425781 173.984375 173.246094 156.644531 151.390625 155.140625 C 130.902344 153.730469 111.703125 165.941406 97.339844 189.539062 C 96.335938 191.1875 94.1875 191.707031 92.542969 190.699219 C 90.890625 189.703125 90.371094 187.546875 91.378906 185.910156 C 99.355469 172.800781 108.820312 162.878906 119.503906 156.398438 C 129.640625 150.253906 140.832031 147.414062 151.871094 148.175781 C 174 149.703125 194.414062 165.277344 207.75 190.371094 C 212.101562 177.117188 222.394531 152.601562 242.039062 139.5 C 243.648438 138.433594 245.808594 138.863281 246.878906 140.46875 C 247.957031 142.082031 247.527344 144.242188 245.917969 145.316406 Z M 266.582031 142.289062 C 256.003906 142.289062 247.371094 133.660156 247.371094 123.085938 C 247.371094 112.503906 256.003906 103.875 266.582031 103.875 C 277.15625 103.875 285.785156 112.503906 285.785156 123.085938 C 285.785156 133.660156 277.15625 142.289062 266.582031 142.289062 Z M 266.582031 142.289062 " fill-opacity="1" fill-rule="nonzero"/><path fill="#ec6ed5" d="M 166.996094 258.367188 L 208.003906 258.367188 L 208.003906 290.683594 L 166.996094 290.683594 Z M 166.996094 258.367188 " fill-opacity="1" fill-rule="nonzero"/><path fill="#ec6ed5" d="M 214.980469 273.5 L 214.980469 294.175781 C 214.980469 296.101562 213.417969 297.667969 211.488281 297.667969 L 163.503906 297.667969 C 161.578125 297.667969 160.011719 296.101562 160.011719 294.175781 L 160.011719 273.5 L 149.316406 273.5 L 141.601562 314.847656 L 233.398438 314.847656 L 225.683594 273.5 Z M 214.980469 273.5 " fill-opacity="1" fill-rule="nonzero"/><g clip-path="url(#44778bdec3)"><path fill="#ec6ed5" d="M 187.5 119.855469 C 203.964844 119.855469 217.359375 106.460938 217.359375 89.996094 C 217.359375 89.714844 217.355469 89.445312 217.347656 89.171875 C 217.347656 89.03125 217.34375 88.886719 217.332031 88.75 C 217.320312 88.445312 217.300781 88.136719 217.285156 87.824219 C 217.257812 87.464844 217.226562 87.101562 217.183594 86.746094 C 217.152344 86.390625 217.105469 86.03125 217.050781 85.679688 C 217.050781 85.679688 217.054688 85.675781 217.050781 85.671875 C 214.945312 71.253906 202.496094 60.140625 187.5 60.140625 C 172.503906 60.140625 160.054688 71.253906 157.960938 85.675781 C 157.953125 85.679688 157.960938 85.6875 157.960938 85.6875 C 157.90625 86.035156 157.863281 86.398438 157.828125 86.753906 C 157.785156 87.109375 157.753906 87.476562 157.726562 87.835938 C 157.699219 88.144531 157.683594 88.449219 157.671875 88.765625 C 157.667969 88.898438 157.664062 89.035156 157.664062 89.179688 C 157.65625 89.449219 157.652344 89.726562 157.652344 90 C 157.640625 106.460938 171.035156 119.855469 187.5 119.855469 Z M 177.03125 73.210938 L 208.273438 89.996094 L 177.03125 106.773438 Z M 177.03125 73.210938 " fill-opacity="1" fill-rule="nonzero"/></g><g clip-path="url(#b6a705fa4a)"><g clip-path="url(#fda450710a)"><g clip-path="url(#c2c16c63fd)"><path fill="#30bbd6" d="M 339.316406 90.683594 C 337.925781 92.914062 335.855469 94.152344 333.410156 95.050781 C 327.566406 97.222656 321.789062 99.613281 315.945312 101.800781 C 314.003906 102.511719 312.019531 103.078125 310.011719 103.5 C 308.167969 103.894531 306.753906 103.128906 306.246094 101.777344 C 305.726562 100.367188 306.34375 98.730469 308.148438 97.964844 C 311.121094 96.699219 314.210938 95.722656 317.238281 94.582031 C 321.835938 92.863281 326.375 91.019531 330.992188 89.433594 C 333.671875 88.496094 336.472656 88.464844 339.148438 89.695312 Z M 293.820312 50.449219 C 291.964844 51.996094 290.578125 53.882812 290.167969 56.261719 C 289.109375 62.410156 288.148438 68.585938 287.265625 74.78125 C 287.09375 75.996094 287.191406 77.242188 287.539062 78.414062 C 287.769531 79.1875 288.621094 80.1875 289.292969 80.273438 C 290.078125 80.363281 291.0625 79.664062 291.789062 79.101562 C 292.207031 78.773438 292.398438 78.050781 292.554688 77.460938 C 294.273438 70.457031 295.933594 63.441406 296.015625 56.199219 C 296.039062 54.253906 295.023438 52.300781 294.480469 50.347656 Z M 318.144531 63.238281 C 313.339844 67.417969 308.4375 71.460938 304.832031 76.832031 C 303.972656 78.109375 302.757812 79.164062 301.792969 80.382812 C 300.945312 81.472656 300.054688 82.570312 299.453125 83.808594 C 298.90625 84.910156 299.058594 86.148438 300.199219 86.953125 C 301.273438 87.710938 302.402344 87.445312 303.300781 86.6875 C 305.222656 85.078125 307.222656 83.507812 308.882812 81.65625 C 312.175781 77.933594 315.273438 74.050781 318.417969 70.21875 C 319.65625 68.710938 320.894531 67.1875 322.070312 65.632812 C 322.976562 64.421875 323.660156 63.09375 323.230469 61.386719 C 321.183594 61.191406 319.554688 62.003906 318.144531 63.238281 Z M 318.144531 63.238281 " fill-opacity="1" fill-rule="nonzero"/></g></g></g><g clip-path="url(#02cd75be00)"><g clip-path="url(#9d71542250)"><g clip-path="url(#28c41f98ac)"><path fill="#30bbd6" d="M 68.179688 52.546875 C 70.554688 53.664062 72.027344 55.578125 73.210938 57.894531 C 76.058594 63.445312 79.109375 68.898438 81.972656 74.441406 C 82.90625 76.289062 83.703125 78.195312 84.355469 80.136719 C 84.964844 81.921875 84.375 83.417969 83.089844 84.082031 C 81.75 84.761719 80.050781 84.339844 79.078125 82.640625 C 77.476562 79.835938 76.136719 76.886719 74.648438 74.011719 C 72.402344 69.652344 70.039062 65.359375 67.914062 60.960938 C 66.667969 58.410156 66.308594 55.628906 67.214844 52.832031 Z M 33.585938 102.46875 C 35.339844 104.128906 37.375 105.285156 39.785156 105.410156 C 46.019531 105.734375 52.261719 105.960938 58.523438 106.105469 C 59.746094 106.136719 60.972656 105.894531 62.09375 105.410156 C 62.835938 105.089844 63.730469 104.128906 63.738281 103.449219 C 63.730469 102.660156 62.921875 101.761719 62.277344 101.109375 C 61.902344 100.730469 61.160156 100.625 60.558594 100.542969 C 53.398438 99.660156 46.238281 98.839844 39.035156 99.609375 C 37.101562 99.816406 35.28125 101.054688 33.40625 101.824219 Z M 43.417969 76.808594 C 48.132812 81.085938 52.726562 85.476562 58.484375 88.425781 C 59.859375 89.128906 61.042969 90.210938 62.371094 91.019531 C 63.554688 91.738281 64.746094 92.488281 66.046875 92.941406 C 67.207031 93.355469 68.417969 93.058594 69.082031 91.832031 C 69.710938 90.675781 69.3125 89.585938 68.453125 88.78125 C 66.628906 87.0625 64.835938 85.261719 62.800781 83.832031 C 58.714844 81.003906 54.496094 78.382812 50.320312 75.710938 C 48.675781 74.660156 47.015625 73.609375 45.332031 72.628906 C 44.023438 71.867188 42.625 71.347656 40.980469 71.976562 C 41.027344 74.027344 42.027344 75.550781 43.417969 76.808594 Z M 43.417969 76.808594 " fill-opacity="1" fill-rule="nonzero"/></g></g></g><g clip-path="url(#fd8789f7b2)"><path fill="#30bbd6" d="M 235.417969 327.257812 C 229.398438 325.855469 223.304688 324.800781 217.167969 324.074219 C 210.914062 323.332031 204.628906 322.921875 198.335938 322.730469 C 192.179688 322.542969 186.015625 322.589844 179.859375 322.792969 C 173.605469 323 167.363281 323.363281 161.125 323.808594 C 154.933594 324.253906 148.75 324.769531 142.574219 325.382812 C 141.667969 325.472656 140.761719 325.5625 139.855469 325.648438 C 138.992188 325.730469 139.175781 327.042969 140.035156 326.976562 C 146.308594 326.480469 152.585938 325.984375 158.867188 325.523438 C 165.050781 325.066406 171.238281 324.691406 177.433594 324.464844 C 183.585938 324.238281 189.746094 324.15625 195.902344 324.285156 C 202.113281 324.417969 208.320312 324.789062 214.496094 325.449219 C 217.414062 325.761719 220.324219 326.136719 223.222656 326.585938 C 217.363281 326.308594 211.5 326.082031 205.632812 325.96875 C 195.824219 325.785156 185.996094 325.933594 176.214844 326.753906 C 170.703125 327.214844 165.203125 327.898438 159.75 328.832031 C 158.917969 328.972656 159.140625 330.371094 159.980469 330.300781 C 168.3125 329.601562 176.675781 329.25 185.039062 329.242188 C 193.351562 329.238281 201.660156 329.566406 209.945312 330.230469 C 212.285156 330.414062 214.621094 330.621094 216.953125 330.859375 C 218.085938 330.972656 219.222656 331.089844 220.355469 331.214844 C 221.628906 331.351562 222.910156 331.4375 224.183594 331.59375 C 225.152344 331.71875 225.445312 330.222656 224.46875 330.097656 C 223.324219 329.957031 222.191406 329.75 221.046875 329.613281 C 220.007812 329.492188 218.964844 329.375 217.925781 329.265625 C 215.839844 329.042969 213.753906 328.847656 211.664062 328.675781 C 207.554688 328.332031 203.4375 328.082031 199.316406 327.917969 C 195.09375 327.746094 190.867188 327.664062 186.644531 327.660156 C 187.582031 327.625 188.519531 327.597656 189.457031 327.570312 C 199.179688 327.300781 208.914062 327.574219 218.632812 328.003906 C 224.109375 328.246094 229.585938 328.566406 235.0625 328.867188 C 235.476562 328.890625 235.859375 328.628906 235.945312 328.214844 C 236.019531 327.847656 235.828125 327.351562 235.417969 327.257812 " fill-opacity="1" fill-rule="nonzero"/></g></svg>