<svg xmlns="http://www.w3.org/2000/svg" xmlns:xlink="http://www.w3.org/1999/xlink" width="500" zoomAndPan="magnify" viewBox="0 0 375 374.999991" height="500" preserveAspectRatio="xMidYMid meet" version="1.0"><defs><clipPath id="d92f892763"><path d="M 135 44 L 194 44 L 194 86 L 135 86 Z M 135 44 " clip-rule="nonzero"/></clipPath><clipPath id="67babd8149"><path d="M 132.101562 77.207031 L 147.894531 30.296875 L 199.78125 47.765625 L 183.988281 94.679688 Z M 132.101562 77.207031 " clip-rule="nonzero"/></clipPath><clipPath id="fb93832f49"><path d="M 132.101562 77.207031 L 147.894531 30.296875 L 199.78125 47.765625 L 183.988281 94.679688 Z M 132.101562 77.207031 " clip-rule="nonzero"/></clipPath><clipPath id="ba3e29d358"><path d="M 286 170 L 332 170 L 332 229 L 286 229 Z M 286 170 " clip-rule="nonzero"/></clipPath><clipPath id="e9940bc3dc"><path d="M 325.875 162.285156 L 350.417969 205.273438 L 302.875 232.421875 L 278.328125 189.4375 Z M 325.875 162.285156 " clip-rule="nonzero"/></clipPath><clipPath id="fddc077a54"><path d="M 325.875 162.285156 L 350.417969 205.273438 L 302.875 232.421875 L 278.328125 189.4375 Z M 325.875 162.285156 " clip-rule="nonzero"/></clipPath><clipPath id="2dad4b4a3e"><path d="M 206.894531 124.320312 L 250.574219 124.320312 L 250.574219 168 L 206.894531 168 Z M 206.894531 124.320312 " clip-rule="nonzero"/></clipPath><clipPath id="0424eb5463"><path d="M 228.734375 124.320312 C 216.671875 124.320312 206.894531 134.097656 206.894531 146.160156 C 206.894531 158.222656 216.671875 168 228.734375 168 C 240.792969 168 250.574219 158.222656 250.574219 146.160156 C 250.574219 134.097656 240.792969 124.320312 228.734375 124.320312 Z M 228.734375 124.320312 " clip-rule="nonzero"/></clipPath></defs><path fill="#ec6ed5" d="M 103.960938 188.839844 L 79.972656 189.296875 C 78.199219 189.332031 76.664062 188.421875 75.839844 186.855469 C 75.019531 185.285156 75.140625 183.503906 76.175781 182.066406 L 118.332031 123.320312 C 119.4375 121.78125 121.261719 121.101562 123.105469 121.542969 L 155.453125 129.273438 C 150.824219 133.351562 146.339844 137.566406 142.007812 141.902344 C 128.949219 154.957031 117.070312 169.257812 106.796875 184.605469 Z M 96.597656 246.117188 C 98.019531 244.695312 100.324219 244.695312 101.746094 246.117188 C 103.167969 247.539062 103.167969 249.84375 101.746094 251.265625 L 88.097656 264.914062 C 86.675781 266.335938 84.371094 266.335938 82.949219 264.914062 C 81.527344 263.492188 81.527344 261.1875 82.949219 259.765625 Z M 123.734375 273.253906 C 125.15625 271.832031 127.460938 271.832031 128.882812 273.253906 C 130.304688 274.675781 130.304688 276.980469 128.882812 278.402344 L 115.234375 292.050781 C 113.8125 293.472656 111.507812 293.472656 110.085938 292.050781 C 108.664062 290.628906 108.664062 288.324219 110.085938 286.902344 Z M 110.15625 259.675781 L 84.394531 285.4375 C 82.964844 286.863281 82.964844 289.179688 84.394531 290.605469 C 85.820312 292.035156 88.136719 292.035156 89.5625 290.605469 L 115.324219 264.84375 C 116.753906 263.417969 116.753906 261.101562 115.324219 259.675781 C 113.898438 258.246094 111.582031 258.246094 110.15625 259.675781 Z M 112.871094 188.671875 L 186.328125 262.128906 C 191.636719 258.574219 196.90625 254.761719 202.105469 250.699219 L 124.300781 172.898438 C 120.238281 178.097656 116.425781 183.363281 112.871094 188.671875 Z M 128.902344 167.164062 L 207.835938 246.097656 C 214.691406 240.441406 221.40625 234.347656 227.929688 227.824219 C 275.191406 180.5625 300.015625 123.117188 297.25 77.746094 C 251.878906 74.980469 194.4375 99.808594 147.175781 147.070312 C 140.652344 153.59375 134.558594 160.308594 128.902344 167.164062 Z M 248.335938 126.664062 C 259.160156 137.492188 259.160156 155.042969 248.335938 165.867188 C 237.511719 176.691406 219.957031 176.691406 209.132812 165.867188 C 198.308594 155.042969 198.308594 137.492188 209.132812 126.664062 C 219.957031 115.839844 237.511719 115.839844 248.335938 126.664062 Z M 242.882812 132.117188 C 250.699219 139.933594 250.699219 152.601562 242.882812 160.417969 C 235.070312 168.230469 222.398438 168.230469 214.585938 160.417969 C 206.769531 152.601562 206.769531 139.933594 214.585938 132.117188 C 222.398438 124.304688 235.070312 124.304688 242.882812 132.117188 Z M 167.332031 253.46875 L 152.480469 268.320312 C 150.699219 270.101562 147.800781 270.101562 146.019531 268.320312 L 106.679688 228.980469 C 104.898438 227.203125 104.898438 224.300781 106.679688 222.519531 L 121.53125 207.667969 Z M 186.160156 271.039062 L 190.394531 268.203125 C 205.742188 257.929688 220.042969 246.050781 233.101562 232.992188 C 237.433594 228.660156 241.648438 224.175781 245.730469 219.550781 L 253.457031 251.894531 C 253.898438 253.738281 253.21875 255.5625 251.679688 256.667969 L 192.933594 298.824219 C 191.496094 299.859375 189.714844 299.984375 188.148438 299.160156 C 186.578125 298.335938 185.671875 296.800781 185.703125 295.027344 Z M 186.160156 271.039062 " fill-opacity="1" fill-rule="evenodd"/><g clip-path="url(#d92f892763)"><g clip-path="url(#67babd8149)"><g clip-path="url(#fb93832f49)"><path fill="#30bbd6" d="M 192.105469 45.148438 C 193.445312 47.40625 193.597656 49.816406 193.277344 52.398438 C 192.527344 58.589844 192.003906 64.816406 191.273438 71.015625 C 191.011719 73.070312 190.605469 75.09375 190.058594 77.070312 C 189.566406 78.886719 188.238281 79.796875 186.800781 79.625 C 185.3125 79.441406 184.136719 78.140625 184.285156 76.1875 C 184.523438 72.96875 185.070312 69.773438 185.445312 66.558594 C 186.023438 61.683594 186.46875 56.804688 187.171875 51.976562 C 187.570312 49.160156 188.824219 46.65625 191.144531 44.84375 Z M 135.488281 67.144531 C 136.011719 69.5 137.054688 71.597656 138.980469 73.054688 C 143.960938 76.8125 149.007812 80.496094 154.113281 84.121094 C 155.109375 84.828125 156.261719 85.316406 157.464844 85.542969 C 158.257812 85.691406 159.535156 85.394531 159.921875 84.839844 C 160.359375 84.179688 160.191406 82.984375 160.023438 82.082031 C 159.925781 81.558594 159.367188 81.058594 158.914062 80.648438 C 153.476562 75.910156 148.003906 71.21875 141.605469 67.828125 C 139.886719 66.914062 137.6875 66.921875 135.703125 66.507812 Z M 158.003906 51.386719 C 159.515625 57.574219 160.863281 63.78125 163.984375 69.449219 C 164.726562 70.800781 165.105469 72.359375 165.746094 73.777344 C 166.328125 75.03125 166.894531 76.324219 167.722656 77.425781 C 168.449219 78.417969 169.617188 78.851562 170.855469 78.207031 C 172.023438 77.597656 172.304688 76.472656 172.042969 75.324219 C 171.492188 72.878906 171.015625 70.382812 170.128906 68.058594 C 168.328125 63.425781 166.300781 58.894531 164.335938 54.34375 C 163.5625 52.550781 162.773438 50.753906 161.929688 48.996094 C 161.269531 47.632812 160.402344 46.417969 158.691406 46.019531 C 157.578125 47.746094 157.554688 49.566406 158.003906 51.386719 Z M 158.003906 51.386719 " fill-opacity="1" fill-rule="nonzero"/></g></g></g><g clip-path="url(#ba3e29d358)"><g clip-path="url(#e9940bc3dc)"><g clip-path="url(#fddc077a54)"><path fill="#30bbd6" d="M 309.9375 228.425781 C 307.355469 227.925781 305.457031 226.4375 303.738281 224.480469 C 299.613281 219.804688 295.308594 215.273438 291.164062 210.609375 C 289.804688 209.050781 288.5625 207.402344 287.449219 205.675781 C 286.417969 204.101562 286.621094 202.503906 287.703125 201.542969 C 288.832031 200.554688 290.582031 200.542969 291.945312 201.953125 C 294.191406 204.269531 296.214844 206.800781 298.367188 209.21875 C 301.621094 212.890625 304.972656 216.464844 308.113281 220.203125 C 309.953125 222.371094 310.988281 224.972656 310.800781 227.910156 Z M 331.140625 171.507812 C 329.03125 170.332031 326.769531 169.714844 324.402344 170.1875 C 318.285156 171.410156 312.179688 172.730469 306.078125 174.136719 C 304.882812 174.410156 303.753906 174.949219 302.785156 175.695312 C 302.144531 176.1875 301.519531 177.339844 301.679688 178 C 301.878906 178.761719 302.882812 179.433594 303.667969 179.90625 C 304.125 180.183594 304.871094 180.097656 305.476562 180.03125 C 312.632812 179.121094 319.773438 178.148438 326.5625 175.621094 C 328.386719 174.945312 329.847656 173.296875 331.472656 172.089844 Z M 327.945312 198.804688 C 322.316406 195.820312 316.785156 192.699219 310.476562 191.261719 C 308.972656 190.921875 307.554688 190.164062 306.070312 189.707031 C 304.746094 189.304688 303.40625 188.867188 302.03125 188.753906 C 300.808594 188.636719 299.707031 189.222656 299.363281 190.578125 C 299.042969 191.851562 299.695312 192.808594 300.726562 193.378906 C 302.921875 194.589844 305.101562 195.894531 307.429688 196.777344 C 312.085938 198.511719 316.820312 200.011719 321.527344 201.566406 C 323.378906 202.183594 325.246094 202.789062 327.121094 203.328125 C 328.578125 203.738281 330.0625 203.898438 331.496094 202.882812 C 330.945312 200.90625 329.601562 199.679688 327.945312 198.804688 Z M 327.945312 198.804688 " fill-opacity="1" fill-rule="nonzero"/></g></g></g><g clip-path="url(#2dad4b4a3e)"><g clip-path="url(#0424eb5463)"><path fill="#30bbd6" d="M 206.894531 124.320312 L 250.574219 124.320312 L 250.574219 168 L 206.894531 168 Z M 206.894531 124.320312 " fill-opacity="1" fill-rule="nonzero"/></g></g></svg>