<svg xmlns="http://www.w3.org/2000/svg" xmlns:xlink="http://www.w3.org/1999/xlink" width="500" zoomAndPan="magnify" viewBox="0 0 375 374.999991" height="500" preserveAspectRatio="xMidYMid meet" version="1.0"><defs><clipPath id="9578406156"><path d="M 139 24 L 147 24 L 147 70 L 139 70 Z M 139 24 " clip-rule="nonzero"/></clipPath><clipPath id="c666d664f7"><path d="M 32.496094 82.71875 L 181.382812 3.285156 L 215.628906 67.472656 L 66.742188 146.90625 Z M 32.496094 82.71875 " clip-rule="nonzero"/></clipPath><clipPath id="502543b678"><path d="M 32.496094 82.71875 L 181.382812 3.285156 L 215.628906 67.472656 L 66.742188 146.90625 Z M 32.496094 82.71875 " clip-rule="nonzero"/></clipPath><clipPath id="df9b5ab844"><path d="M 157 52 L 162 52 L 162 70 L 157 70 Z M 157 52 " clip-rule="nonzero"/></clipPath><clipPath id="f9898121d0"><path d="M 32.496094 82.71875 L 181.382812 3.285156 L 215.628906 67.472656 L 66.742188 146.90625 Z M 32.496094 82.71875 " clip-rule="nonzero"/></clipPath><clipPath id="4b31508dc8"><path d="M 32.496094 82.71875 L 181.382812 3.285156 L 215.628906 67.472656 L 66.742188 146.90625 Z M 32.496094 82.71875 " clip-rule="nonzero"/></clipPath><clipPath id="b3a0c54977"><path d="M 182 35 L 200 35 L 200 66 L 182 66 Z M 182 35 " clip-rule="nonzero"/></clipPath><clipPath id="31d349f44b"><path d="M 32.496094 82.71875 L 181.382812 3.285156 L 215.628906 67.472656 L 66.742188 146.90625 Z M 32.496094 82.71875 " clip-rule="nonzero"/></clipPath><clipPath id="2e9a11d3c9"><path d="M 32.496094 82.71875 L 181.382812 3.285156 L 215.628906 67.472656 L 66.742188 146.90625 Z M 32.496094 82.71875 " clip-rule="nonzero"/></clipPath><clipPath id="13e7dc2260"><path d="M 191 67 L 204 67 L 204 79 L 191 79 Z M 191 67 " clip-rule="nonzero"/></clipPath><clipPath id="6d9022bbb5"><path d="M 32.496094 82.71875 L 181.382812 3.285156 L 215.628906 67.472656 L 66.742188 146.90625 Z M 32.496094 82.71875 " clip-rule="nonzero"/></clipPath><clipPath id="7a56c36ddb"><path d="M 32.496094 82.71875 L 181.382812 3.285156 L 215.628906 67.472656 L 66.742188 146.90625 Z M 32.496094 82.71875 " clip-rule="nonzero"/></clipPath><clipPath id="baaab98665"><path d="M 113 55 L 128 55 L 128 77 L 113 77 Z M 113 55 " clip-rule="nonzero"/></clipPath><clipPath id="72bd0faaa4"><path d="M 32.496094 82.71875 L 181.382812 3.285156 L 215.628906 67.472656 L 66.742188 146.90625 Z M 32.496094 82.71875 " clip-rule="nonzero"/></clipPath><clipPath id="0ed9eb09d7"><path d="M 32.496094 82.71875 L 181.382812 3.285156 L 215.628906 67.472656 L 66.742188 146.90625 Z M 32.496094 82.71875 " clip-rule="nonzero"/></clipPath><clipPath id="b3fb46b84d"><path d="M 79 60 L 105 60 L 105 88 L 79 88 Z M 79 60 " clip-rule="nonzero"/></clipPath><clipPath id="f1228cb391"><path d="M 32.496094 82.71875 L 181.382812 3.285156 L 215.628906 67.472656 L 66.742188 146.90625 Z M 32.496094 82.71875 " clip-rule="nonzero"/></clipPath><clipPath id="8cd980493c"><path d="M 32.496094 82.71875 L 181.382812 3.285156 L 215.628906 67.472656 L 66.742188 146.90625 Z M 32.496094 82.71875 " clip-rule="nonzero"/></clipPath><clipPath id="9b731710cc"><path d="M 80 97 L 99 97 L 99 110 L 80 110 Z M 80 97 " clip-rule="nonzero"/></clipPath><clipPath id="0ed023936f"><path d="M 32.496094 82.71875 L 181.382812 3.285156 L 215.628906 67.472656 L 66.742188 146.90625 Z M 32.496094 82.71875 " clip-rule="nonzero"/></clipPath><clipPath id="5f22de6155"><path d="M 32.496094 82.71875 L 181.382812 3.285156 L 215.628906 67.472656 L 66.742188 146.90625 Z M 32.496094 82.71875 " clip-rule="nonzero"/></clipPath><clipPath id="9d068dd40a"><path d="M 50 105 L 86 105 L 86 124 L 50 124 Z M 50 105 " clip-rule="nonzero"/></clipPath><clipPath id="a84e1ed8a4"><path d="M 32.496094 82.71875 L 181.382812 3.285156 L 215.628906 67.472656 L 66.742188 146.90625 Z M 32.496094 82.71875 " clip-rule="nonzero"/></clipPath><clipPath id="ef8d134205"><path d="M 32.496094 82.71875 L 181.382812 3.285156 L 215.628906 67.472656 L 66.742188 146.90625 Z M 32.496094 82.71875 " clip-rule="nonzero"/></clipPath><clipPath id="68d8f30466"><path d="M 65 135 L 81 135 L 81 145 L 65 145 Z M 65 135 " clip-rule="nonzero"/></clipPath><clipPath id="219ce7226c"><path d="M 32.496094 82.71875 L 181.382812 3.285156 L 215.628906 67.472656 L 66.742188 146.90625 Z M 32.496094 82.71875 " clip-rule="nonzero"/></clipPath><clipPath id="044d842d6b"><path d="M 32.496094 82.71875 L 181.382812 3.285156 L 215.628906 67.472656 L 66.742188 146.90625 Z M 32.496094 82.71875 " clip-rule="nonzero"/></clipPath></defs><g clip-path="url(#9578406156)"><g clip-path="url(#c666d664f7)"><g clip-path="url(#502543b678)"><path fill="#32bcd6" d="M 140.632812 25.027344 C 139.957031 25.390625 139.550781 26.152344 139.675781 26.953125 C 139.839844 28.015625 139.984375 29.449219 140.109375 31.257812 L 141.367188 51.304688 L 141.371094 51.347656 C 142.101562 59.71875 142.65625 65.1875 143.039062 67.753906 C 143.191406 68.769531 144.136719 69.46875 145.152344 69.316406 C 145.367188 69.285156 145.570312 69.214844 145.753906 69.121094 C 146.425781 68.757812 146.835938 68.003906 146.714844 67.203125 C 146.34375 64.722656 145.800781 59.34375 145.078125 51.070312 L 145.074219 51.070312 L 143.816406 31.015625 L 143.816406 31.003906 C 143.6875 29.09375 143.53125 27.550781 143.347656 26.378906 C 143.1875 25.363281 142.238281 24.671875 141.222656 24.832031 C 141.011719 24.863281 140.8125 24.929688 140.632812 25.027344 Z M 140.632812 25.027344 " fill-opacity="1" fill-rule="nonzero"/></g></g></g><g clip-path="url(#df9b5ab844)"><g clip-path="url(#f9898121d0)"><g clip-path="url(#4b31508dc8)"><path fill="#32bcd6" d="M 159.054688 53.128906 C 158.546875 53.398438 158.175781 53.902344 158.089844 54.511719 C 157.457031 59.078125 157.128906 63.507812 157.105469 67.808594 C 157.101562 68.835938 157.925781 69.671875 158.953125 69.675781 C 159.273438 69.679688 159.574219 69.597656 159.839844 69.457031 C 160.421875 69.148438 160.820312 68.535156 160.820312 67.828125 C 160.84375 63.691406 161.160156 59.421875 161.769531 55.023438 C 161.910156 54.007812 161.203125 53.070312 160.183594 52.929688 C 159.78125 52.871094 159.390625 52.949219 159.054688 53.128906 Z M 159.054688 53.128906 " fill-opacity="1" fill-rule="nonzero"/></g></g></g><g clip-path="url(#b3a0c54977)"><g clip-path="url(#31d349f44b)"><g clip-path="url(#2e9a11d3c9)"><path fill="#32bcd6" d="M 196.371094 35.316406 C 196.042969 35.492188 195.761719 35.769531 195.582031 36.128906 C 187.203125 53 182.796875 62.085938 182.363281 63.394531 C 182.339844 63.472656 182.316406 63.546875 182.300781 63.617188 C 182.058594 64.613281 182.671875 65.617188 183.667969 65.859375 C 184.128906 65.972656 184.59375 65.902344 184.980469 65.695312 C 185.414062 65.460938 185.753906 65.0625 185.894531 64.554688 C 186.269531 63.421875 190.609375 54.496094 198.914062 37.78125 C 199.367188 36.863281 198.992188 35.746094 198.074219 35.289062 C 197.515625 35.011719 196.882812 35.042969 196.371094 35.316406 Z M 196.371094 35.316406 " fill-opacity="1" fill-rule="nonzero"/></g></g></g><g clip-path="url(#13e7dc2260)"><g clip-path="url(#6d9022bbb5)"><g clip-path="url(#7a56c36ddb)"><path fill="#32bcd6" d="M 200.410156 68.039062 C 200.238281 68.132812 200.078125 68.253906 199.9375 68.402344 C 197.734375 70.722656 196.117188 72.398438 195.078125 73.425781 C 194.230469 74.257812 193.441406 74.933594 192.710938 75.453125 C 191.875 76.050781 191.679688 77.210938 192.277344 78.046875 C 192.824219 78.816406 193.851562 79.042969 194.664062 78.609375 C 194.734375 78.570312 194.800781 78.527344 194.871094 78.480469 C 195.761719 77.84375 196.703125 77.039062 197.691406 76.070312 L 197.699219 76.0625 C 198.761719 75.007812 200.40625 73.304688 202.632812 70.960938 C 203.339844 70.214844 203.308594 69.039062 202.566406 68.332031 C 201.96875 67.765625 201.097656 67.671875 200.410156 68.039062 Z M 200.410156 68.039062 " fill-opacity="1" fill-rule="nonzero"/></g></g></g><g clip-path="url(#baaab98665)"><g clip-path="url(#72bd0faaa4)"><g clip-path="url(#0ed9eb09d7)"><path fill="#32bcd6" d="M 114.132812 56.214844 C 114.050781 56.257812 113.972656 56.308594 113.898438 56.363281 C 113.074219 56.972656 112.902344 58.136719 113.511719 58.964844 L 116.332031 62.773438 C 116.9375 63.632812 117.617188 64.664062 118.375 65.863281 L 118.378906 65.871094 C 119.613281 67.820312 121.53125 71.164062 124.121094 75.902344 C 124.613281 76.800781 125.730469 77.132812 126.628906 76.652344 C 126.632812 76.648438 126.640625 76.644531 126.644531 76.644531 C 127.546875 76.148438 127.875 75.019531 127.382812 74.121094 C 124.757812 69.316406 122.800781 65.90625 121.519531 63.882812 C 120.71875 62.609375 119.992188 61.511719 119.34375 60.59375 L 119.320312 60.558594 L 116.5 56.75 C 115.941406 56 114.929688 55.789062 114.132812 56.214844 Z M 114.132812 56.214844 " fill-opacity="1" fill-rule="nonzero"/></g></g></g><g clip-path="url(#b3fb46b84d)"><g clip-path="url(#f1228cb391)"><g clip-path="url(#8cd980493c)"><path fill="#32bcd6" d="M 80.097656 61.09375 C 79.953125 61.171875 79.816406 61.269531 79.6875 61.390625 C 78.945312 62.097656 78.921875 63.273438 79.628906 64.015625 L 101.148438 86.542969 C 101.738281 87.15625 102.648438 87.28125 103.367188 86.898438 C 103.511719 86.820312 103.652344 86.722656 103.777344 86.601562 C 104.519531 85.890625 104.546875 84.714844 103.835938 83.972656 L 82.316406 61.449219 C 81.726562 60.832031 80.816406 60.710938 80.097656 61.09375 Z M 80.097656 61.09375 " fill-opacity="1" fill-rule="nonzero"/></g></g></g><g clip-path="url(#9b731710cc)"><g clip-path="url(#0ed023936f)"><g clip-path="url(#5f22de6155)"><path fill="#32bcd6" d="M 81.785156 97.644531 C 81.550781 97.769531 81.339844 97.949219 81.171875 98.175781 C 80.558594 99 80.730469 100.164062 81.554688 100.773438 C 82.125 101.199219 82.808594 101.652344 83.613281 102.136719 L 83.632812 102.148438 C 90.796875 106.332031 94.621094 108.59375 95.117188 108.941406 C 95.710938 109.378906 96.480469 109.410156 97.09375 109.085938 C 97.324219 108.960938 97.53125 108.789062 97.699219 108.570312 C 98.320312 107.753906 98.160156 106.585938 97.34375 105.964844 C 97.3125 105.941406 97.285156 105.921875 97.257812 105.902344 L 97.25 105.898438 C 96.671875 105.492188 92.765625 103.175781 85.53125 98.949219 C 84.832031 98.53125 84.246094 98.144531 83.769531 97.792969 C 83.175781 97.347656 82.402344 97.316406 81.785156 97.644531 Z M 81.785156 97.644531 " fill-opacity="1" fill-rule="nonzero"/></g></g></g><g clip-path="url(#9d068dd40a)"><g clip-path="url(#a84e1ed8a4)"><g clip-path="url(#ef8d134205)"><path fill="#32bcd6" d="M 51.828125 105.761719 C 51.429688 105.972656 51.105469 106.332031 50.949219 106.792969 C 50.613281 107.761719 51.128906 108.820312 52.097656 109.15625 C 53.453125 109.625 55.222656 110.351562 57.40625 111.335938 C 71.144531 117.828125 79.59375 121.730469 82.753906 123.042969 C 83.289062 123.265625 83.871094 123.222656 84.34375 122.96875 C 84.710938 122.773438 85.015625 122.457031 85.183594 122.042969 C 85.578125 121.09375 85.132812 120.007812 84.183594 119.613281 C 81.074219 118.320312 72.671875 114.4375 58.964844 107.960938 L 58.9375 107.949219 C 56.652344 106.917969 54.777344 106.148438 53.3125 105.640625 C 52.800781 105.464844 52.269531 105.523438 51.828125 105.761719 Z M 51.828125 105.761719 " fill-opacity="1" fill-rule="nonzero"/></g></g></g><g clip-path="url(#68d8f30466)"><g clip-path="url(#219ce7226c)"><g clip-path="url(#044d842d6b)"><path fill="#32bcd6" d="M 67.230469 140.710938 C 66.679688 141.007812 66.222656 141.273438 65.863281 141.507812 L 65.859375 141.507812 C 65 142.070312 64.757812 143.222656 65.320312 144.082031 C 65.851562 144.898438 66.917969 145.15625 67.640625 144.769531 C 67.679688 144.75 67.714844 144.730469 67.75 144.703125 L 67.753906 144.703125 L 67.890625 144.621094 C 68.164062 144.445312 68.523438 144.234375 68.96875 143.996094 C 69.230469 143.859375 69.519531 143.710938 69.835938 143.550781 C 70.339844 143.300781 70.820312 143.0625 71.28125 142.835938 L 71.285156 142.835938 C 73.769531 141.640625 75.382812 140.859375 76.125 140.492188 C 77.203125 139.964844 78.222656 139.457031 79.1875 138.972656 C 79.203125 138.964844 79.21875 138.957031 79.230469 138.949219 C 80.117188 138.476562 80.46875 137.378906 80.015625 136.476562 C 79.554688 135.558594 78.4375 135.1875 77.519531 135.648438 C 76.554688 136.136719 75.539062 136.640625 74.480469 137.160156 L 74.476562 137.164062 C 73.75 137.523438 72.148438 138.296875 69.664062 139.492188 L 69.660156 139.492188 C 69.199219 139.71875 68.703125 139.960938 68.171875 140.226562 L 68.175781 140.226562 C 67.832031 140.398438 67.519531 140.558594 67.230469 140.710938 Z M 67.230469 140.710938 " fill-opacity="1" fill-rule="nonzero"/></g></g></g><path fill="#ec6ed5" d="M 212.207031 189.253906 L 162.792969 189.253906 C 162.070312 189.253906 161.492188 188.671875 161.492188 187.945312 C 161.492188 187.222656 162.070312 186.644531 162.792969 186.644531 L 212.207031 186.644531 C 212.929688 186.644531 213.515625 187.222656 213.515625 187.945312 C 213.515625 188.671875 212.929688 189.253906 212.207031 189.253906 Z M 212.207031 195.789062 L 162.792969 195.789062 C 162.070312 195.789062 161.492188 195.203125 161.492188 194.480469 C 161.492188 193.761719 162.070312 193.175781 162.792969 193.175781 L 212.207031 193.175781 C 212.929688 193.175781 213.515625 193.761719 213.515625 194.480469 C 213.515625 195.203125 212.929688 195.789062 212.207031 195.789062 Z M 187.628906 202.316406 L 162.792969 202.316406 C 162.070312 202.316406 161.492188 201.730469 161.492188 201.007812 C 161.492188 200.289062 162.070312 199.703125 162.792969 199.703125 L 187.628906 199.703125 C 188.351562 199.703125 188.9375 200.289062 188.9375 201.007812 C 188.9375 201.730469 188.351562 202.316406 187.628906 202.316406 Z M 172.542969 173.117188 L 181.929688 169.136719 L 181.929688 172.191406 L 175.714844 174.425781 L 181.929688 176.617188 L 181.929688 179.664062 L 172.542969 175.6875 Z M 189.011719 165.289062 L 191.355469 165.289062 L 185.515625 182.523438 L 183.171875 182.523438 Z M 192.964844 176.636719 L 199.292969 174.390625 L 192.964844 172.179688 L 192.964844 169.144531 L 202.457031 173.128906 L 202.457031 175.6875 L 192.964844 179.675781 Z M 220.464844 155.675781 L 154.535156 155.675781 L 154.535156 211.9375 L 220.464844 211.9375 L 220.464844 155.675781 " fill-opacity="1" fill-rule="nonzero"/><path fill="#ec6ed5" d="M 214.566406 133.675781 L 194.632812 133.675781 C 193.140625 133.675781 191.921875 134.890625 191.921875 136.386719 C 191.921875 137.886719 193.140625 139.101562 194.632812 139.101562 L 214.566406 139.101562 C 216.0625 139.101562 217.28125 137.886719 217.28125 136.386719 C 217.28125 134.890625 216.0625 133.675781 214.566406 133.675781 " fill-opacity="1" fill-rule="nonzero"/><path fill="#ec6ed5" d="M 169.988281 133.675781 C 168.488281 133.675781 167.269531 134.890625 167.269531 136.386719 C 167.269531 137.886719 168.488281 139.101562 169.988281 139.101562 C 171.480469 139.101562 172.699219 137.886719 172.699219 136.386719 C 172.699219 134.890625 171.480469 133.675781 169.988281 133.675781 " fill-opacity="1" fill-rule="nonzero"/><path fill="#ec6ed5" d="M 160.433594 133.675781 C 158.933594 133.675781 157.714844 134.890625 157.714844 136.386719 C 157.714844 137.886719 158.933594 139.101562 160.433594 139.101562 C 161.925781 139.101562 163.144531 137.886719 163.144531 136.386719 C 163.144531 134.890625 161.925781 133.675781 160.433594 133.675781 " fill-opacity="1" fill-rule="nonzero"/><path fill="#ec6ed5" d="M 262.75 232.269531 C 259.554688 240.988281 251.167969 247.222656 241.355469 247.222656 L 133.640625 247.222656 C 123.832031 247.222656 115.445312 240.988281 112.25 232.269531 C 111.734375 230.875 112.789062 229.40625 114.269531 229.40625 L 123.148438 229.40625 L 123.148438 160.613281 C 123.148438 156.988281 126.097656 154.042969 129.71875 154.042969 L 143.09375 154.042969 L 143.09375 161.925781 L 131.03125 161.925781 L 131.03125 229.40625 L 164.09375 229.40625 L 164.09375 236.761719 C 164.09375 237.277344 164.511719 237.695312 165.027344 237.695312 L 209.972656 237.695312 C 210.488281 237.695312 210.90625 237.277344 210.90625 236.761719 L 210.90625 229.40625 L 243.96875 229.40625 L 243.96875 161.925781 L 231.90625 161.925781 L 231.90625 154.042969 L 245.28125 154.042969 C 248.902344 154.042969 251.851562 156.988281 251.851562 160.613281 L 251.851562 229.40625 L 260.730469 229.40625 C 262.210938 229.40625 263.265625 230.875 262.75 232.269531 Z M 148.992188 150.128906 L 226.007812 150.128906 L 226.007812 213.382812 C 226.007812 215.648438 224.175781 217.480469 221.917969 217.480469 L 153.082031 217.480469 C 150.824219 217.480469 148.992188 215.648438 148.992188 213.382812 Z M 148.992188 140.957031 C 148.992188 133.679688 154.894531 127.777344 162.167969 127.777344 L 212.832031 127.777344 C 220.113281 127.777344 226.007812 133.679688 226.007812 140.957031 L 226.007812 144.996094 L 148.992188 144.996094 Z M 187.5 75 C 125.367188 75 75 125.367188 75 187.5 C 75 249.632812 125.367188 300 187.5 300 C 249.632812 300 300 249.632812 300 187.5 C 300 125.367188 249.632812 75 187.5 75 " fill-opacity="1" fill-rule="nonzero"/></svg>