<?xml version="1.0" encoding="UTF-8" standalone="no"?>
<!DOCTYPE svg PUBLIC "-//W3C//DTD SVG 1.1//EN"
 "http://www.w3.org/Graphics/SVG/1.1/DTD/svg11.dtd">
<!-- Generated by graphviz version 12.1.1 (20240910.0053)
 -->
<!-- Title: INFRA Pages: 1 -->
<svg width="138pt" height="188pt"
 viewBox="0.00 0.00 138.37 188.00" xmlns="http://www.w3.org/2000/svg" xmlns:xlink="http://www.w3.org/1999/xlink">
<g id="graph0" class="graph" transform="scale(1 1) rotate(0) translate(4 184)">
<title>INFRA</title>
<polygon fill="white" stroke="none" points="-4,4 -4,-184 134.37,-184 134.37,4 -4,4"/>
<!-- ProjectDatabase -->
<g id="node1" class="node">
<title>ProjectDatabase</title>
<path fill="#ffcfb3" stroke="black" stroke-width="2" d="M124.94,-65.45C124.94,-69.07 98.16,-72 65.19,-72 32.22,-72 5.43,-69.07 5.43,-65.45 5.43,-65.45 5.43,-6.55 5.43,-6.55 5.43,-2.93 32.22,0 65.19,0 98.16,0 124.94,-2.93 124.94,-6.55 124.94,-6.55 124.94,-65.45 124.94,-65.45"/>
<path fill="none" stroke="black" stroke-width="2" d="M124.94,-65.45C124.94,-61.84 98.16,-58.91 65.19,-58.91 32.22,-58.91 5.43,-61.84 5.43,-65.45"/>
<text text-anchor="middle" x="65.19" y="-40.2" font-family="Arial" font-size="14.00">ProjectDatabase</text>
<text text-anchor="middle" x="65.19" y="-23.4" font-family="Arial" font-size="14.00">(MongoDB)</text>
</g>
<!-- CronJob -->
<g id="node2" class="node">
<title>CronJob</title>
<path fill="#b7e0ff" stroke="black" stroke-width="2" d="M118.37,-180C118.37,-180 12,-180 12,-180 6,-180 0,-174 0,-168 0,-168 0,-120 0,-120 0,-114 6,-108 12,-108 12,-108 118.37,-108 118.37,-108 124.37,-108 130.37,-114 130.37,-120 130.37,-120 130.37,-168 130.37,-168 130.37,-174 124.37,-180 118.37,-180"/>
<text text-anchor="middle" x="65.19" y="-148.2" font-family="Arial" font-size="14.00">CronJob</text>
<text text-anchor="middle" x="65.19" y="-131.4" font-family="Arial" font-size="14.00">(NextJSAPIRoute)</text>
</g>
<!-- CronJob&#45;&gt;ProjectDatabase -->
<g id="edge1" class="edge">
<title>CronJob&#45;&gt;ProjectDatabase</title>
<path fill="none" stroke="black" d="M65.19,-107.7C65.19,-99.93 65.19,-91.57 65.19,-83.43"/>
<polygon fill="black" stroke="black" points="68.69,-83.66 65.19,-73.66 61.69,-83.66 68.69,-83.66"/>
</g>
</g>
</svg>
